<svg xmlns="http://www.w3.org/2000/svg" width="273.417" height="42.406" viewBox="0 0 273.417 42.406"><defs><style>.a{fill:#fff;}</style></defs><g transform="translate(0 0)"><g transform="translate(43.307)"><path class="a" d="M238.215,47.5h-10.7l-1.889,4.9H215.98l12.3-28.146h9.328l12.3,28.146H240.1ZM235.6,40.666l-2.735-7.076-2.735,7.076H235.6Z" transform="translate(-215.98 -19.396)"/><path class="a" d="M397.124,53.341V70.952q0,6.271-3.479,9.428t-9.911,3.156a25.649,25.649,0,0,1-6.152-.7,15.461,15.461,0,0,1-4.864-2.031l3.056-6.192a10.547,10.547,0,0,0,3.256,1.568,12.867,12.867,0,0,0,3.78.6,5.7,5.7,0,0,0,3.98-1.165,4.459,4.459,0,0,0,1.247-3.417v-.4a7.659,7.659,0,0,1-6.072,2.332,10.907,10.907,0,0,1-5.247-1.307,9.888,9.888,0,0,1-3.88-3.74,10.688,10.688,0,0,1-1.448-5.568,10.58,10.58,0,0,1,1.448-5.548,9.948,9.948,0,0,1,3.88-3.72,10.93,10.93,0,0,1,5.247-1.307q4.5,0,6.513,2.9V53.343h8.644ZM387.052,66.068a3.317,3.317,0,0,0,1.065-2.553,3.257,3.257,0,0,0-1.065-2.532,3.83,3.83,0,0,0-2.673-.964,3.941,3.941,0,0,0-2.715.964,3.545,3.545,0,0,0,.02,5.085,3.857,3.857,0,0,0,2.695.985A3.787,3.787,0,0,0,387.052,66.068Z" transform="translate(-340.228 -42.325)"/><path class="a" d="M526.312,52.932v8.041a13.91,13.91,0,0,0-2.011-.16q-4.665,0-4.664,4.744v9.771H510.55V53.333h8.644v2.372q2.412-2.773,7.116-2.775Z" transform="translate(-451.485 -42.317)"/><path class="a" d="M589.668,7.94a4.2,4.2,0,0,1-1.508-3.316,4.2,4.2,0,0,1,1.508-3.316A5.837,5.837,0,0,1,593.628,0a6.043,6.043,0,0,1,3.98,1.247A4.008,4.008,0,0,1,599.1,4.463,4.439,4.439,0,0,1,597.608,7.9a5.7,5.7,0,0,1-3.98,1.347,5.777,5.777,0,0,1-3.96-1.307Zm-.584,3.076h9.087V33.01h-9.087Z" transform="translate(-513.533 0)"/><path class="a" d="M649.392,74.291a11.182,11.182,0,0,1-4.624-4.06,11.271,11.271,0,0,1,0-11.8,11.237,11.237,0,0,1,4.624-4.04,15.031,15.031,0,0,1,6.7-1.448,13.043,13.043,0,0,1,6.876,1.728,8.973,8.973,0,0,1,3.94,4.784l-7.036,3.459q-1.287-2.893-3.82-2.9a3.525,3.525,0,0,0-2.673,1.125,4.44,4.44,0,0,0-1.065,3.176,4.544,4.544,0,0,0,1.065,3.216,3.528,3.528,0,0,0,2.673,1.125q2.533,0,3.82-2.9l7.036,3.459a8.965,8.965,0,0,1-3.94,4.784,13.024,13.024,0,0,1-6.876,1.728,15.037,15.037,0,0,1-6.7-1.448Z" transform="translate(-557.457 -42.325)"/><path class="a" d="M786.734,54.94V76.934H778.09V74.843a7.765,7.765,0,0,1-2.815,1.869,9.386,9.386,0,0,1-3.417.624,9.034,9.034,0,0,1-6.715-2.553q-2.533-2.554-2.532-7.7V54.94H771.7V65.515a5.468,5.468,0,0,0,.724,3.216,2.5,2.5,0,0,0,2.131.964,2.76,2.76,0,0,0,2.212-1.065,5.211,5.211,0,0,0,.884-3.357V54.942h9.087Z" transform="translate(-653.004 -43.924)"/><path class="a" d="M889.74,15.84h9.087V45.674H889.74Z" transform="translate(-754.642 -12.664)"/><path class="a" d="M960.093,56.455a11.326,11.326,0,0,1-5.588,1.167q-4.626,0-7.116-2.232T944.9,48.7V43.067H941.88V36.432H944.9V30.28h9.087v6.152h4.5v6.635h-4.5v5.548a2.215,2.215,0,0,0,.523,1.568,1.781,1.781,0,0,0,1.368.563,3.546,3.546,0,0,0,2.051-.6l2.172,6.312Z" transform="translate(-796.328 -24.208)"/><path class="a" d="M1058.644,54.94V76.934H1050V74.843a7.768,7.768,0,0,1-2.815,1.869,9.386,9.386,0,0,1-3.417.624,9.033,9.033,0,0,1-6.715-2.553q-2.532-2.554-2.532-7.7V54.94h9.087V65.515a5.47,5.47,0,0,0,.724,3.216,2.5,2.5,0,0,0,2.132.964,2.761,2.761,0,0,0,2.212-1.065,5.212,5.212,0,0,0,.884-3.357V54.942h9.087Z" transform="translate(-870.392 -43.924)"/><path class="a" d="M1181.412,52.932v8.041a13.909,13.909,0,0,0-2.011-.16q-4.665,0-4.664,4.744v9.771h-9.087V53.333h8.644v2.372q2.412-2.773,7.116-2.775Z" transform="translate(-975.229 -42.317)"/><path class="a" d="M1265.514,66.44h-15.279a3.688,3.688,0,0,0,1.608,1.909,5.457,5.457,0,0,0,2.815.664,7.125,7.125,0,0,0,2.432-.361,8.49,8.49,0,0,0,2.151-1.247l4.744,4.784q-3.218,3.54-9.609,3.539a15.8,15.8,0,0,1-7-1.468,11.1,11.1,0,0,1-4.664-4.08,10.776,10.776,0,0,1-1.648-5.871,10.921,10.921,0,0,1,1.628-5.891,11.1,11.1,0,0,1,4.463-4.04,14.7,14.7,0,0,1,12.464-.12,10.467,10.467,0,0,1,4.383,3.9,11.273,11.273,0,0,1,1.628,6.152q0,.2-.12,2.131Zm-14.234-6.555a3.628,3.628,0,0,0-1.207,2.172h7.076a3.7,3.7,0,0,0-1.207-2.151,3.479,3.479,0,0,0-2.332-.784,3.536,3.536,0,0,0-2.332.764Z" transform="translate(-1035.526 -42.317)"/></g><path class="a" d="M21.056,43.582A21.056,21.056,0,1,1,42.112,22.526,21.08,21.08,0,0,1,21.056,43.582Zm0-41.308A20.253,20.253,0,1,0,41.31,22.526,20.273,20.273,0,0,0,21.056,2.274Z" transform="translate(0 -1.175)"/><g transform="translate(3.01 3.304)"><path class="a" d="M39.757,17.767A18.054,18.054,0,0,0,16.3,41.229Z" transform="translate(-15.01 -16.48)"/><path class="a" d="M52.411,29.124,27.67,53.865c.261.435.537.86.832,1.271l22.6-22.6a1.338,1.338,0,0,1,1.891,0h0a1.338,1.338,0,0,1,0,1.891L30.225,57.2q.46.475.956.916L48.706,40.587a1.338,1.338,0,0,1,1.891,0h0a1.338,1.338,0,0,1,0,1.891L33.324,59.75c.4.259.8.5,1.219.73L46.925,48.1a1.338,1.338,0,0,1,1.891,0h0a1.338,1.338,0,0,1,0,1.891L37.16,61.645A18.05,18.05,0,0,0,52.413,29.12Z" transform="translate(-25.132 -26.586)"/></g></g></svg>