<svg xmlns="http://www.w3.org/2000/svg" xmlns:xlink="http://www.w3.org/1999/xlink" width="312.569" height="67.022" viewBox="0 0 312.569 67.022"><defs><style>.a{fill:#e6e6e6;}.b{fill:#fff;}.c{clip-path:url(#a);}.d{fill:#999;}.e{clip-path:url(#b);}.f{clip-path:url(#c);}.g{clip-path:url(#d);}.h{clip-path:url(#e);}.i{clip-path:url(#f);}.j{clip-path:url(#g);}.k{clip-path:url(#h);}.l{clip-path:url(#i);}.m{clip-path:url(#j);}</style><clipPath id="a"><path class="a" d="M264.289,245.069,242.23,213.14l21.93,11.145Z" transform="translate(-242.23 -213.14)"/></clipPath><clipPath id="b"><path class="b" d="M379.587,268.489l11.859-27.369-11.986,6.5Z" transform="translate(-379.46 -241.12)"/></clipPath><clipPath id="c"><path class="b" d="M265.491,161.566,243.27,150.637l19.656-11.857,14.806,16.171Z" transform="translate(-243.27 -138.78)"/></clipPath><clipPath id="d"><path class="b" d="M373.99,58.541,359.2,42.535l-1.191-18.5,11.05,3.315L377.22,44.6Z" transform="translate(-358.01 -24.03)"/></clipPath><clipPath id="e"><path class="b" d="M235.684,26.578l6.684-3.985-.988-18.508L228.576.26,218.97,16.92Z" transform="translate(-218.97 -0.26)"/></clipPath><clipPath id="f"><path class="b" d="M204.538,112.759l-16.757-9.649-3.751,1.031-1.88,20.241,3.857,4.462,5.631-8.149Z" transform="translate(-182.15 -103.11)"/></clipPath><clipPath id="g"><path class="b" d="M132.105,130.065l1.87-19.975-11.135,2.763,3.144,16.4Z" transform="translate(-122.84 -110.09)"/></clipPath><clipPath id="h"><path class="b" d="M122.32,20.315l.34-16.109L147.268,0l-9.52,16.4Z" transform="translate(-122.32)"/></clipPath><clipPath id="i"><path class="b" d="M49.747,42.455l-10,1.084-3.74-4L50.1,26.42Z" transform="translate(-36.01 -26.42)"/></clipPath><clipPath id="j"><path class="b" d="M35.058,111.669l-10.2,1.053-3.825-4.111-2.6,2.666,6.376,18.786,13.377-2.041Z" transform="translate(-18.43 -108.61)"/></clipPath></defs><g transform="translate(0)"><g transform="translate(0)"><g transform="translate(80.38 16.63)"><path class="b" d="M507.19,135.063V109.89h12.8a13.62,13.62,0,0,1,5.3.965,10.891,10.891,0,0,1,3.853,2.651,11.217,11.217,0,0,1,2.352,3.985,15.953,15.953,0,0,1,0,9.973,11.266,11.266,0,0,1-2.352,3.985,10.89,10.89,0,0,1-3.853,2.651,13.614,13.614,0,0,1-5.3.965h-12.8Zm12.8-6.179a4.331,4.331,0,0,0,2.133-.51A4.479,4.479,0,0,0,523.649,127a6.316,6.316,0,0,0,.913-2.036,10.188,10.188,0,0,0,0-4.968,6.386,6.386,0,0,0-.913-2.036,4.481,4.481,0,0,0-1.528-1.378,4.348,4.348,0,0,0-2.133-.51h-5.371v12.816Z" transform="translate(-507.19 -108.448)"/><path class="b" d="M662.8,105.219a2.91,2.91,0,0,1,.237-1.176,3.076,3.076,0,0,1,1.607-1.607,3.038,3.038,0,0,1,2.352,0,3.077,3.077,0,0,1,1.607,1.607,3.038,3.038,0,0,1,0,2.352A3.077,3.077,0,0,1,667,108a3.038,3.038,0,0,1-2.352,0,3.076,3.076,0,0,1-1.607-1.607A2.916,2.916,0,0,1,662.8,105.219Zm.14,5.337H668.7v18.082H662.94Z" transform="translate(-637.209 -102.022)"/><path class="b" d="M725.969,151.23v18.082h-5.758v-2.6A5.375,5.375,0,0,1,719,168.189a5.564,5.564,0,0,1-.737.544,5.962,5.962,0,0,1-.939.474,6.283,6.283,0,0,1-1.141.334,7.014,7.014,0,0,1-1.36.123,9.205,9.205,0,0,1-3.748-.737,8.411,8.411,0,0,1-2.853-2.02,8.99,8.99,0,0,1-1.809-2.985,10.869,10.869,0,0,1,0-7.3,8.995,8.995,0,0,1,1.809-2.985,8.433,8.433,0,0,1,2.853-2.02,9.21,9.21,0,0,1,3.748-.737,7,7,0,0,1,1.36.123,6.154,6.154,0,0,1,1.141.334,6.033,6.033,0,0,1,.939.474,5.457,5.457,0,0,1,.737.544,5.378,5.378,0,0,1,1.212,1.475v-2.6h5.758Zm-10.094,14.01a4.1,4.1,0,0,0,1.825-.395,4.151,4.151,0,0,0,1.37-1.062,4.584,4.584,0,0,0,.852-1.571,6.617,6.617,0,0,0,0-3.871,4.558,4.558,0,0,0-.852-1.58,4.155,4.155,0,0,0-1.37-1.062,4.438,4.438,0,0,0-3.659,0,4.147,4.147,0,0,0-1.36,1.062,4.585,4.585,0,0,0-.852,1.58,6.616,6.616,0,0,0,0,3.871,4.54,4.54,0,0,0,.852,1.571,4.163,4.163,0,0,0,1.36,1.062A4.091,4.091,0,0,0,715.874,165.24Z" transform="translate(-673.12 -142.697)"/><path class="b" d="M869.168,169.312H863.41v-9.182a9.848,9.848,0,0,0-.166-1.825,4.9,4.9,0,0,0-.553-1.544,3.113,3.113,0,0,0-.992-1.062,2.985,2.985,0,0,0-2.967,0,3.068,3.068,0,0,0-.992,1.062,4.852,4.852,0,0,0-.553,1.544,9.714,9.714,0,0,0-.166,1.825v9.182h-5.758v-9.182a9.854,9.854,0,0,0-.166-1.825,4.9,4.9,0,0,0-.553-1.544,3.113,3.113,0,0,0-.992-1.062,2.661,2.661,0,0,0-1.483-.395,2.7,2.7,0,0,0-1.492.395,2.978,2.978,0,0,0-.992,1.062,5.052,5.052,0,0,0-.544,1.544,9.714,9.714,0,0,0-.166,1.825v9.182H839.12V151.23h5.758V153a4.04,4.04,0,0,1,.947-1.053,5.484,5.484,0,0,1,1.307-.737,5.088,5.088,0,0,1,1.957-.334,9.4,9.4,0,0,1,1.623.132,7.685,7.685,0,0,1,1.36.36,7.6,7.6,0,0,1,1.107.51,7.8,7.8,0,0,1,.86.562,6.069,6.069,0,0,1,1.4,1.562,5.868,5.868,0,0,1,1.317-1.562,6.969,6.969,0,0,1,.781-.562,6.5,6.5,0,0,1,1.01-.51,6.754,6.754,0,0,1,1.228-.36,7.581,7.581,0,0,1,1.457-.132,8.242,8.242,0,0,1,3.556.71,6.767,6.767,0,0,1,2.475,1.957,8.244,8.244,0,0,1,1.439,2.941,13.75,13.75,0,0,1,.465,3.643v9.182Z" transform="translate(-784.532 -142.697)"/><path class="b" d="M1038.194,169.664a11.507,11.507,0,0,1-4.064-.694,9.669,9.669,0,0,1-3.2-1.931,8.636,8.636,0,0,1-2.089-2.967,10.047,10.047,0,0,1,0-7.6,8.636,8.636,0,0,1,2.089-2.967,9.624,9.624,0,0,1,3.2-1.931,12.245,12.245,0,0,1,8.128,0,9.64,9.64,0,0,1,3.2,1.931,8.635,8.635,0,0,1,2.089,2.967,10.047,10.047,0,0,1,0,7.6,8.635,8.635,0,0,1-2.089,2.967,9.622,9.622,0,0,1-3.2,1.931A11.507,11.507,0,0,1,1038.194,169.664Zm0-4.424a4.1,4.1,0,0,0,1.825-.395,4.152,4.152,0,0,0,1.37-1.062,4.584,4.584,0,0,0,.852-1.571,6.617,6.617,0,0,0,0-3.871,4.561,4.561,0,0,0-.852-1.58,4.157,4.157,0,0,0-1.37-1.062,4.438,4.438,0,0,0-3.659,0,4.148,4.148,0,0,0-1.36,1.062,4.585,4.585,0,0,0-.852,1.58,6.617,6.617,0,0,0,0,3.871,4.542,4.542,0,0,0,.852,1.571,4.165,4.165,0,0,0,1.36,1.062A4.091,4.091,0,0,0,1038.194,165.24Z" transform="translate(-942.433 -142.697)"/><path class="b" d="M1175.878,169.3h-5.758v-8.83a12.018,12.018,0,0,0-.176-2.141,4.564,4.564,0,0,0-.6-1.633,2.936,2.936,0,0,0-1.115-1.036,4.239,4.239,0,0,0-3.457,0,2.91,2.91,0,0,0-1.115,1.036,4.564,4.564,0,0,0-.6,1.633,12.031,12.031,0,0,0-.176,2.141v8.83h-5.758V151.222h5.758V153.7c.012-.023.049-.112.114-.263a3.146,3.146,0,0,1,.316-.544,4.749,4.749,0,0,1,.579-.668,4.339,4.339,0,0,1,.886-.65,5.58,5.58,0,0,1,1.247-.5,6.191,6.191,0,0,1,1.668-.2,9.057,9.057,0,0,1,3.809.72,6.634,6.634,0,0,1,2.536,1.992,8.068,8.068,0,0,1,1.4,3.038,16.278,16.278,0,0,1,.429,3.853v8.83Z" transform="translate(-1050.243 -142.688)"/><path class="b" d="M1297.587,101.122v26.614h-5.758v-2.58c-.023.035-.135.207-.334.518a4.622,4.622,0,0,1-.939,1,6.706,6.706,0,0,1-1.659.974,6.192,6.192,0,0,1-2.457.439,9.206,9.206,0,0,1-3.748-.737,8.412,8.412,0,0,1-2.853-2.02,8.956,8.956,0,0,1-1.807-2.985,10.868,10.868,0,0,1,0-7.3,9.018,9.018,0,0,1,1.807-2.985,8.435,8.435,0,0,1,2.853-2.02,9.211,9.211,0,0,1,3.748-.737,6.651,6.651,0,0,1,1.738.211,6.423,6.423,0,0,1,1.36.526,5.743,5.743,0,0,1,1.018.684,5.65,5.65,0,0,1,.7.7,5.469,5.469,0,0,1,.413.562c.094.153.146.24.158.263V101.12h5.758Zm-10.094,22.54a4.1,4.1,0,0,0,1.826-.395,4.152,4.152,0,0,0,1.37-1.062,4.584,4.584,0,0,0,.852-1.571,6.617,6.617,0,0,0,0-3.871,4.557,4.557,0,0,0-.852-1.58,4.157,4.157,0,0,0-1.37-1.062,4.438,4.438,0,0,0-3.659,0,4.147,4.147,0,0,0-1.36,1.062,4.581,4.581,0,0,0-.852,1.58,6.615,6.615,0,0,0,0,3.871,4.536,4.536,0,0,0,.852,1.571,4.164,4.164,0,0,0,1.36,1.062A4.092,4.092,0,0,0,1287.493,123.662Z" transform="translate(-1150.734 -101.12)"/><path class="b" d="M1411.75,135.063V109.89h13.272a19.178,19.178,0,0,1,4.574.482,9.782,9.782,0,0,1,3.222,1.37,5.776,5.776,0,0,1,1.914,2.133,6.047,6.047,0,0,1,.632,2.774,5.5,5.5,0,0,1-.342,1.993,5.58,5.58,0,0,1-.895,1.554,5.429,5.429,0,0,1-1.265,1.123,5.884,5.884,0,0,1-1.449.684,7.734,7.734,0,0,1,1.86.729,5.9,5.9,0,0,1,1.544,1.22,5.65,5.65,0,0,1,1.062,1.747,6.305,6.305,0,0,1,.395,2.309,5.911,5.911,0,0,1-2.667,5.065,10.479,10.479,0,0,1-3.414,1.465,19.817,19.817,0,0,1-4.855.526H1411.75Zm13.272-15.589a6.655,6.655,0,0,0,1.449-.132,2.667,2.667,0,0,0,.895-.35,1.149,1.149,0,0,0,.447-.536,1.958,1.958,0,0,0,0-1.368,1.158,1.158,0,0,0-.447-.536,2.715,2.715,0,0,0-.895-.352,6.645,6.645,0,0,0-1.449-.132h-5.847v3.406Zm.316,9.41a5.967,5.967,0,0,0,2.7-.447,1.695,1.695,0,0,0,0-2.9,5.941,5.941,0,0,0-2.7-.447h-6.162v3.792Z" transform="translate(-1262.989 -108.448)"/><path class="b" d="M1584.137,151.23v18.082h-5.758v-2.6a5.374,5.374,0,0,1-1.212,1.475,5.449,5.449,0,0,1-.737.544,6.037,6.037,0,0,1-.939.474,6.285,6.285,0,0,1-1.141.334,7.016,7.016,0,0,1-1.36.123,9.206,9.206,0,0,1-3.748-.737,8.411,8.411,0,0,1-2.853-2.02,8.959,8.959,0,0,1-1.807-2.985,10.872,10.872,0,0,1,0-7.3,9.018,9.018,0,0,1,1.807-2.985,8.433,8.433,0,0,1,2.853-2.02,9.212,9.212,0,0,1,3.748-.737,7,7,0,0,1,1.36.123,6.2,6.2,0,0,1,1.141.334,6.035,6.035,0,0,1,.939.474,5.448,5.448,0,0,1,.737.544,5.376,5.376,0,0,1,1.212,1.475v-2.6h5.758Zm-10.094,14.01a4.1,4.1,0,0,0,1.826-.395,4.15,4.15,0,0,0,1.37-1.062,4.582,4.582,0,0,0,.852-1.571,6.615,6.615,0,0,0,0-3.871,4.557,4.557,0,0,0-.852-1.58,4.155,4.155,0,0,0-1.37-1.062,4.438,4.438,0,0,0-3.659,0,4.145,4.145,0,0,0-1.36,1.062,4.586,4.586,0,0,0-.852,1.58,6.617,6.617,0,0,0,0,3.871,4.54,4.54,0,0,0,.852,1.571,4.163,4.163,0,0,0,1.36,1.062A4.09,4.09,0,0,0,1574.043,165.24Z" transform="translate(-1390.159 -142.697)"/><path class="b" d="M1699.61,165.232a6.1,6.1,0,0,0,2.362-.334,1.042,1.042,0,0,0,.729-.949,1.165,1.165,0,0,0-.132-.571,1.032,1.032,0,0,0-.492-.4,4.229,4.229,0,0,0-.983-.281c-.416-.076-.951-.15-1.607-.219a22.9,22.9,0,0,1-3.7-.668,8.751,8.751,0,0,1-2.6-1.141,4.579,4.579,0,0,1-1.536-1.694,5.039,5.039,0,0,1-.51-2.325,4.469,4.469,0,0,1,.571-2.168,5.653,5.653,0,0,1,1.659-1.844,8.852,8.852,0,0,1,2.659-1.281,12.141,12.141,0,0,1,3.572-.484,11.165,11.165,0,0,1,2.4.237,9.094,9.094,0,0,1,1.9.623,7.2,7.2,0,0,1,1.439.878,7.939,7.939,0,0,1,1.054,1,6.99,6.99,0,0,1,1.423,2.722h-5.758a1.276,1.276,0,0,0-.439-.51,2.9,2.9,0,0,0-.747-.36,3.98,3.98,0,0,0-1.273-.166,4.968,4.968,0,0,0-2.054.316,1.073,1.073,0,0,0-.65,1.036,1.352,1.352,0,0,0,.061.395.8.8,0,0,0,.334.395,2.951,2.951,0,0,0,.842.36,9.21,9.21,0,0,0,1.589.271,28.624,28.624,0,0,1,3.714.6,9.544,9.544,0,0,1,2.738,1.062,4.676,4.676,0,0,1,1.694,1.7,5.056,5.056,0,0,1,.579,2.52,4.471,4.471,0,0,1-.668,2.432,5.622,5.622,0,0,1-1.843,1.791,9.237,9.237,0,0,1-2.8,1.105,15.615,15.615,0,0,1-3.537.377,14.332,14.332,0,0,1-2.748-.237,10.18,10.18,0,0,1-2.107-.632,7.647,7.647,0,0,1-1.554-.886,6.6,6.6,0,0,1-1.089-1.018,5.877,5.877,0,0,1-1.317-2.791h5.758a1.314,1.314,0,0,0,.51.579,3.437,3.437,0,0,0,.913.386,6.029,6.029,0,0,0,1.633.176Z" transform="translate(-1496.139 -142.688)"/><path class="b" d="M1817.445,164.635a8.267,8.267,0,0,1-2.02,2.51,9.788,9.788,0,0,1-1.265.921,9.958,9.958,0,0,1-1.641.807,11.328,11.328,0,0,1-2.046.571,13.515,13.515,0,0,1-2.475.21,10.682,10.682,0,0,1-4.037-.737,9.488,9.488,0,0,1-3.133-2.02,9.082,9.082,0,0,1-2.028-2.985,9.614,9.614,0,0,1,0-7.3,9.116,9.116,0,0,1,2.028-2.985,9.515,9.515,0,0,1,3.133-2.02,10.688,10.688,0,0,1,4.037-.737,11.075,11.075,0,0,1,4.117.755,8.921,8.921,0,0,1,3.274,2.22,9.458,9.458,0,0,1,2.062,3.616,12.636,12.636,0,0,1,.465,4.924h-13.764a4.385,4.385,0,0,0,1.386,2.054,3.753,3.753,0,0,0,2.457.789,7.659,7.659,0,0,0,1.229-.087,5.316,5.316,0,0,0,.878-.211,2.836,2.836,0,0,0,.7-.3h6.636ZM1808,155.3a4.091,4.091,0,0,0-1.484.255,3.759,3.759,0,0,0-1.159.7,3.9,3.9,0,0,0-.834,1.062,5.544,5.544,0,0,0-.51,1.352h7.97a5.48,5.48,0,0,0-.51-1.352,3.924,3.924,0,0,0-.834-1.062,3.712,3.712,0,0,0-1.167-.7A4.123,4.123,0,0,0,1808,155.3Z" transform="translate(-1585.784 -142.688)"/></g><g transform="translate(0)"><g transform="translate(36.805 35.052)"><path class="a" d="M264.289,245.069,242.23,213.14l21.93,11.145Z" transform="translate(-242.23 -213.14)"/><g class="c"><path class="b" d="M230.09,204.29l19.294,15.47,4.93,18.784-21.08-19.039Z" transform="translate(-232.086 -205.745)"/><path class="d" d="M233.822,178.1l18.807,15.173,5.865-3.911-2.975-10.371s-9.18-6.631-9.606-6.631-9.435.936-9.861,1.275a36.364,36.364,0,0,0-2.232,4.463Z" transform="translate(-235.203 -179.067)"/></g></g><g transform="translate(59.374 39.654)"><path class="b" d="M379.587,268.489l11.859-27.369-11.986,6.5Z" transform="translate(-379.46 -241.12)"/><g class="e"><path class="a" d="M378.81,258.276l3.251-19.911,11.093-10.626s3.635,9.563,3.506,9.945,1.848,10.774,1.848,11.029a21.809,21.809,0,0,1-2.932,3.123c-1.084,1.02-16.766,6.438-16.766,6.438Z" transform="translate(-378.917 -229.94)"/><path class="d" d="M375.71,232.19l3.761,2.508,9.925-9.478-7.1-1.87Z" transform="translate(-376.327 -226.272)"/></g></g><g transform="translate(36.977 22.823)"><path class="b" d="M265.491,161.566,243.27,150.637l19.656-11.857,14.806,16.171Z" transform="translate(-243.27 -138.78)"/><g class="f"><path class="d" d="M233.7,199.4l21.994-2.615,2.041,14.791-6.438.7-17.085-9.562Z" transform="translate(-235.274 -187.25)"/><path class="a" d="M362.79,134.38l.765,10.264,1.8,13.245,5.978.334,6.884-4.972-.622-1.977Z" transform="translate(-343.134 -135.104)"/></g></g><g transform="translate(55.846 3.952)"><path class="b" d="M373.99,58.541,359.2,42.535l-1.191-18.5,11.05,3.315L377.22,44.6Z" transform="translate(-358.01 -24.03)"/><g class="g"><path class="d" d="M351.55,132.45l16.192,4.907,1.148,13.708-12.624-5.228Z" transform="translate(-352.612 -114.62)"/><path class="a" d="M455.3,146.01l-5.292,2.677L450.9,160.8l2.487.574L462,150.026Z" transform="translate(-434.88 -125.95)"/></g></g><g transform="translate(32.98 0.043)"><path class="b" d="M235.684,26.578l6.684-3.985-.988-18.508L228.576.26,218.97,16.92Z" transform="translate(-218.97 -0.26)"/><g class="h"><path class="d" d="M211.212,86.835l14.62-2.975,11.56,9.69-8.075,7.141s-13.855-4.5-14.451-4.676-3.656-9.18-3.656-9.18" transform="translate(-212.486 -70.111)"/><path class="a" d="M300.12,28.58l10.2-10.88,3.146,16.831-3.061,3.485-10.114-5.269Z" transform="translate(-286.774 -14.832)"/></g></g><g transform="translate(26.925 16.957)"><path class="b" d="M204.538,112.759l-16.757-9.649-3.751,1.031-1.88,20.241,3.857,4.462,5.631-8.149Z" transform="translate(-182.15 -103.11)"/><g class="i"><path class="a" d="M184.641,92.13l6.248,19.422-9.649-2.422.6-15.895Z" transform="translate(-181.39 -93.936)"/><path class="d" d="M180.331,195.63l9.372,2.422-5.929,8.894-4.144-4.718Z" transform="translate(-180.044 -180.414)"/></g></g><path class="d" d="M207.15,221.565l5.355-7.715,6.631,9.882Z" transform="translate(-176.114 -178.681)"/><g transform="translate(17.171 18.105)"><path class="b" d="M132.105,130.065l1.87-19.975-11.135,2.763,3.144,16.4Z" transform="translate(-122.84 -110.09)"/><g class="j"><path class="a" d="M134.395,106.34,122.58,118.709l2.3,9.647,8.414.85Z" transform="translate(-122.623 -106.957)"/></g></g><g transform="translate(17.085)"><path class="b" d="M122.32,20.315l.34-16.109L147.268,0l-9.52,16.4Z" transform="translate(-122.32)"/><g class="k"><path class="d" d="M107.959,17.7l20.465,16.192L106.43,35.933Z" transform="translate(-109.043 -14.789)"/><path class="a" d="M120.819,15.477l8.372-8.627-17.722.6,1.444,2Z" transform="translate(-113.254 -5.723)"/></g></g><g transform="translate(2.891 4.345)"><path class="b" d="M49.747,42.455l-10,1.084-3.74-4L50.1,26.42Z" transform="translate(-36.01 -26.42)"/><g class="l"><path class="d" d="M27.87,91.891,39.79,88.64l5.037,8.989-13.579,1.4Z" transform="translate(-29.209 -78.407)"/><path class="a" d="M38.578,40.57l1.529,7.905L28.25,51.727l4.718-10.583Z" transform="translate(-29.526 -38.243)"/></g></g><g transform="translate(0 17.862)"><path class="b" d="M35.058,111.669l-10.2,1.053-3.825-4.111-2.6,2.666,6.376,18.786,13.377-2.041Z" transform="translate(-18.43 -108.61)"/><g class="m"><path class="a" d="M68.542,121.192l-11.028,9.244-.574,11.283s16.447.7,16.64.7-5.036-21.23-5.036-21.23Z" transform="translate(-50.607 -119.121)"/><path class="d" d="M2.732,122.37l7.2,9.053-.574,11.05s-6.843-9.945-7.012-10.328-2.761-5.823-2.294-6.29S2.732,122.37,2.732,122.37Z" transform="translate(-3.029 -120.107)"/></g></g></g></g></g></svg>