<svg xmlns="http://www.w3.org/2000/svg" width="135.075" height="120.934" viewBox="0 0 135.075 120.934"><defs><style>.a{fill:#fff;}</style></defs><g transform="translate(0)"><g transform="translate(0 0)"><g transform="translate(29.676 0)"><path class="a" d="M305.1,66.194c-.19-.177-.34.049-.471.143-1.039.745-2.06,1.516-3.106,2.251a8.865,8.865,0,0,1-2.455,1.294.619.619,0,0,1-.7-.108c-.207-.246.07-.4.189-.579a10.288,10.288,0,0,1,1.886-2.2,4.054,4.054,0,0,0,1.214-2.144,2.028,2.028,0,0,1,2.432-1.582.8.8,0,0,0,.734-.093A4.866,4.866,0,0,0,302,62.865a.954.954,0,0,1-1.113-.419,4.92,4.92,0,0,0-4.241-1.744c.773.32,1.622.382,2.392.746,1.3.615,1.813,1.615,1.381,2.78a.7.7,0,0,1-.682.512,4.679,4.679,0,0,1-3.9-1.652c-.217-.232-.405-.491-.607-.739a3.288,3.288,0,0,0,.137,1.125,7.033,7.033,0,0,1,.238,3.3c-.027.132.012.324-.189.335-.152.009-.181-.157-.22-.265-.168-.465-.331-.933-.476-1.406a14.936,14.936,0,0,1-.63-5.256,3.239,3.239,0,0,0-.225-1.51c-.086-.2-.26-.433-.106-.641.218-.3.108-.579.083-.885-.055-.692-.462-1.305-.3-2.058A23.648,23.648,0,0,1,295.1,50.6c.56-1.287,1.36-2.448,1.921-3.736a2.215,2.215,0,0,0,.087-2.178,9.005,9.005,0,0,0-2.154-2.61,32.055,32.055,0,0,1-3.364-2.519c-2.67-2.675-5.011-5.637-7.452-8.513a11.159,11.159,0,0,0-1.461-1.633.608.608,0,0,0,.187.479c1.515,1.984,3.079,3.93,4.725,5.806a93.142,93.142,0,0,1,6.953,8.366,6.755,6.755,0,0,1,1.225,3.8,2.364,2.364,0,0,1-.322,1.238q-.832,1.52-1.63,3.057a2.3,2.3,0,0,1-.514.892,5.947,5.947,0,0,1-.342-1.33,35.769,35.769,0,0,0-3.913-7.835,50.368,50.368,0,0,1-4.075-7.123,16.946,16.946,0,0,0-4.4-5.971c-.144-.125-.24-.36-.508-.255-.057.2.109.3.2.416a10.227,10.227,0,0,1,1.581,2.85,10.675,10.675,0,0,1,.318,4.235c-.063,1.309-.418,1.7-1.616,1.993a3.939,3.939,0,0,1-.4.075,13.938,13.938,0,0,1-6.226-.845,1.174,1.174,0,0,1-.953-1.288q.005-2.418,0-4.837c0-.736.061-1.437.858-1.795a.613.613,0,0,0,.228-.2,28.836,28.836,0,0,1,2.711-3.425c.014-.014-.017-.07-.036-.143A9.4,9.4,0,0,0,275,29.045c-.243.256-.446.362-.786.129a2.031,2.031,0,0,0-2.061-.216c-.1.042-.2.044-.267-.135.148-.162.315-.339.474-.52,2.129-2.422,4.976-4.127,6.889-6.981a5.219,5.219,0,0,1-1.268,2.559,2.35,2.35,0,0,0,1.161-.57,3.668,3.668,0,0,0,1.222-3.28,11.392,11.392,0,0,0-1.6-4.281,38.608,38.608,0,0,1-.744,4.231,13.275,13.275,0,0,1-3.35,5.426,26.983,26.983,0,0,0-3.079,3.3c-.2.274-.53.439-.267,1.042.24.548.543,1.55-.446,2.058-.183.094-.29.343-.421.528,0,0-1.605,2.112-1.15,1.609s1.439-1.33,1.439-1.33a1.656,1.656,0,0,1,1.156-.46,12.219,12.219,0,0,0-1.3,3.248.336.336,0,0,0,.147-.187,24.79,24.79,0,0,1,1.444-2.868c.109-.165.2-.336.429-.246.2.08.138.276.132.436,0,.1-.027.2-.036.308a44.909,44.909,0,0,0-.2,5.323,2.2,2.2,0,0,0,1.248,2.167c.044.022.067.089.122.168a6.843,6.843,0,0,1-3.745.154,1.845,1.845,0,0,0-2.28.907,1.365,1.365,0,0,1-.382.361,17.545,17.545,0,0,0-2.133,1.632,2.675,2.675,0,0,0-.974,1.327c-.067.239.043.52-.144.764a2.341,2.341,0,0,1,.433-2.661c1.239-.785,1.427-2.095,1.767-3.336.008-.029-.066-.08-.148-.177a3.038,3.038,0,0,1-1.548,1.735c-.164.079-.375.222-.487-.007a5.681,5.681,0,0,0-.876-1.41c-.136-.147.043-.306.127-.44.161-.185,1.9-2.3,2.887-3.329V36c-.3.222-.586.426-.586.426a10.847,10.847,0,0,0-1.593,1.3,6.754,6.754,0,0,0-2.011,2.853c-.061.174-.166.377-.045.533.152.2.281-.032.416-.091.268-.119.27.078.285.245a8.441,8.441,0,0,1-.069,1.483,4.775,4.775,0,0,0,.967,3.186c.473.68,1.2.623,1.89.705.514.062.576-.04.342-.511a2.129,2.129,0,0,1-.018-2.032,5.754,5.754,0,0,1,1.77-1.884.5.5,0,0,1,.72.054.441.441,0,0,1,.058.678,5.408,5.408,0,0,0-.919,3.185c1.174-.755,1.72-2.08,2.845-2.771a9.694,9.694,0,0,1,3.735-1.048c-1.275.813-2.834.961-4.055,1.875a15.675,15.675,0,0,1,2.844-.249c.635-.042,1.268-.174,1.9-.259,1-.135,1.882-.714,2.948-.63a4.228,4.228,0,0,0,3.522-1.491,1.173,1.173,0,0,1,1.9.271c.179.348.34.705.489,1.067.559,1.352,1.057,2.732,1.679,4.055a71.435,71.435,0,0,0,3.713,6.278,49.063,49.063,0,0,1,3.2,5.719.754.754,0,0,1,.111.461,7.865,7.865,0,0,0-.1,2.012,11.909,11.909,0,0,1,.16,2.327c-.692-1.351-1.3-2.54-1.91-3.728a.52.52,0,0,1-.058-.411c.2-.693-.14-1.347-.14-2.031a5.582,5.582,0,0,0-.238,1.558,8.169,8.169,0,0,1-.085,1.918,3.577,3.577,0,0,0,.2,2.251,9.506,9.506,0,0,0,2.05,3.139c.241.257.241.41-.12.506a40.91,40.91,0,0,1-5.643,1.088,42.789,42.789,0,0,0-4.937,1.268,2.386,2.386,0,0,0-1.011.589c-.105.1-.273.156-.217.332.066.208.241.1.369.08a5.316,5.316,0,0,1,1.353.118.394.394,0,0,1,.376.277c.035.178-.151.232-.266.3a10.707,10.707,0,0,1-2.365,1.2.927.927,0,0,0-.691.985.817.817,0,0,0,.691.831c.736.174,1,.581.774,1.3a15.707,15.707,0,0,1-.592,1.884,3.232,3.232,0,0,0-.47,1.506,7.84,7.84,0,0,0,.84-1.826c.357-1.01.675-2.033,1.011-3.051.109-.331.322-.6.678-.423a1.681,1.681,0,0,1,.7.678c.135.258-.292.265-.394.457-.077.145-.19.271-.266.417a14.1,14.1,0,0,0-1.052,3.413c-.142.61-.137,1.342-.686,1.735a1.374,1.374,0,0,0-.671,1.287.927.927,0,0,1-.157.586c-.327.48-.139.819.326,1.048a1.241,1.241,0,0,1,.673.58,1.181,1.181,0,0,1-.717.031c-.622-.055-1.073.26-1.026.858a2.083,2.083,0,0,1-.417,1.312c-.431.7-.9,1.38-1.325,2.089-.191.322-.514.588-.539,1.071.878-.425,1.695-.845,2.534-1.218a1.051,1.051,0,0,1,1.6.63c.419,1.043.277,1.609-.542,1.925a7.052,7.052,0,0,0-2.959,2.065c-.453.542-.934,1.061-1.4,1.59.052.077.046.069.1.146a19.744,19.744,0,0,0,2.026-.793,3.056,3.056,0,0,1,2.1-.543c-.547.527-1.336.545-1.807,1.089a.51.51,0,0,0,.5.155,4.161,4.161,0,0,0,3.845-4.944c-.072-.28-.133-.563-.19-.847a2.786,2.786,0,0,1,.211-2.077,3.636,3.636,0,0,0,.1-3.727,2.947,2.947,0,0,1-.376-2.437c.226-.875.275-1.8.565-2.652.226-.663.856-1.159.976-1.909.026-.162.2-.183.34-.234A3.96,3.96,0,0,0,286,74a.609.609,0,0,1,.553-.206,58.582,58.582,0,0,0,8.845-.309c.024,0,.055.048.1.083-.281.394-.746.635-.971,1.141a.357.357,0,0,0,.388-.139,15.257,15.257,0,0,1,2.6-1.986,57.054,57.054,0,0,0,5.035-3.146,8.932,8.932,0,0,0,2.5-2.8c.076-.143.212-.315.066-.452ZM285.547,43.208a9.72,9.72,0,0,0-.891-2.874.6.6,0,0,1,.288-.873c.417-.234.463.266.538.471.447,1.235.857,2.485,1.257,3.736.241.754.439,1.522.657,2.284-.727-.85-1.664-1.525-1.849-2.743Z" transform="translate(-262.098 -13.969)"/><path class="a" d="M402.624,11.037a3.634,3.634,0,0,0,1.309-.139h0c-.31.847-.066,1.54.608,1.566a4.9,4.9,0,0,1,2.095.5,1.9,1.9,0,0,1,.839.831,4.255,4.255,0,0,0,2.086,2.2,3.613,3.613,0,0,1,1.637,1.217,37.829,37.829,0,0,0,6.26,6.569c.993.822,1.9,1.41,3.142.452.418-.322.993-.18,1.585-.1-.24.319-.465.217-.657.24a3.043,3.043,0,0,0-2.493,1.5,15.132,15.132,0,0,0-1.176,4.121l.151.058c.214-.571.41-1.15.647-1.711a3.055,3.055,0,0,1,4.552-1.412,61.035,61.035,0,0,1,5.265,3.689c.417.328.857.554,1.337.14a.832.832,0,0,0,.083-1.262c-.2-.273-.08-.412.209-.469.2-.041.406-.071.607-.117a24.379,24.379,0,0,1,4.492-.471c1.908-.071,3.82-.017,5.837-.017a3.926,3.926,0,0,1-.559.23,17.064,17.064,0,0,0-4.386,1.7c-.744.425-1.544.74-2.3,1.149h0l1.932.506h0c-1.767,2.163-2.724,4.136-2.637,5h0a7.364,7.364,0,0,1,3.542-3.69,26.378,26.378,0,0,1,4.1-1.552,53.742,53.742,0,0,1,6.145-1.667c2.011-.429,4.087-.543,6.132-.824h0l-1.826-.476a29.786,29.786,0,0,0-8.693-.857h-.035a25.08,25.08,0,0,1-3.582-.249c-.9-.1-1.8-.284-2.743-.438.089-.079.127-.142.179-.155a14.929,14.929,0,0,0,4.22-1.583c4.01-2.538,1.874-1.933,10-3.464h0l-4.426.273a11.4,11.4,0,0,0-3.847.925l-.016.007a70.168,70.168,0,0,1-8.737,2.917c-.54.154-1.107.214-1.662.317,3.907-1.315,8.4-5.584,8.2-7.947a.555.555,0,0,0-.169.069,12.915,12.915,0,0,1-7.28,3.252,11.8,11.8,0,0,1-5.859-.59c-1.843-.76-3.627-1.671-5.408-2.572a9.886,9.886,0,0,1-2-1.148,2.025,2.025,0,0,1,.377-.142,10.766,10.766,0,0,0,3.158-1.037,25.288,25.288,0,0,1,4.494-1.718h0s4.347-.731,6.966.982a5.263,5.263,0,0,0-1.569-.942,10.192,10.192,0,0,0-6.43-.522c-1.393.288-2.779.609-4.16.945a14.14,14.14,0,0,1-3.094.411c2.765-1.772,6.036-1.5,8.485-1.814h0c-3.362-.64-6.457.123-9.667.6h0a11.593,11.593,0,0,0,2.837-2.969,14.919,14.919,0,0,1,1.293-1.655,2.348,2.348,0,0,1,2.69-.429,1.82,1.82,0,0,0-2.274-.745,9.26,9.26,0,0,0-3.145,2.243c-1.9,1.732-3.882,3.3-6.616,3.409-1.352.054-2.731.306-3.948-.581-.2-.147-.5-.269-.478-.521.025-.3.367-.177.563-.213a11.436,11.436,0,0,0,4.338-1.67,8.424,8.424,0,0,0,3.179-4.12c.54-1.457,1.591-3.721,3.091-4.42V2.625a6.211,6.211,0,0,0-3.316,2.494,25.672,25.672,0,0,1-2.019,2.7,7.538,7.538,0,0,1-2.06,1.818h0c.285-.744.323-1.242-.247-1.628-.6-.41-1.115.163-1.748.156h0a12.612,12.612,0,0,1,3.507-4.486h0a6.717,6.717,0,0,0-1.829.827c-.23.142-.5.366-.691.033-.207-.365-.914-.564-.5-1.164a7.553,7.553,0,0,1,2.37-2.4A6.323,6.323,0,0,1,415.42.148a2.926,2.926,0,0,0-2.135.2,7.613,7.613,0,0,0-3.026,2.368,1.061,1.061,0,0,1-1.243.3,3.724,3.724,0,0,0-2.785-.258,6.011,6.011,0,0,0-2.14,1.316,47.862,47.862,0,0,0-4.411,4.923,7.473,7.473,0,0,1-2.669,2.186s3.813-.983,5.283-2.467c.771-.779,1.44-1.653,2.194-2.448a6.162,6.162,0,0,1,2.691-1.7,3.332,3.332,0,0,1,1.452-.153l-4.306,4.538a6.08,6.08,0,0,1-3.3,1.987l1.6.1Zm7.088-6.1c.237-.434.592.02.837.122.277.115-.01.291-.117.41q-.909,1.007-1.827,2a4.6,4.6,0,0,1-.359.319c.463-.981.958-1.923,1.466-2.856Zm13.706,16.551a1.792,1.792,0,0,1-1.1-.328,57.652,57.652,0,0,0-6.187-3.545A3.832,3.832,0,0,0,417,17.7c1.856-.311,3.1.832,4.381,1.849.688.548,1.283,1.215,2.032,1.937h0Z" transform="translate(-381.735 -0.019)"/><path class="a" d="M579.3,375.871c-.807.2-1.609.426-2.4.679a33.609,33.609,0,0,1-4.873,1.172,15.471,15.471,0,0,1-3.4.186,1.372,1.372,0,0,1-1.368-1.721,10.838,10.838,0,0,1,.5-2.353c.241-.659.5-1.305.785-1.947.13-.3.229-.652-.134-.815a1.948,1.948,0,0,1-1.07-1.509c-.093-.382-.283-1-.41-1.369a52.25,52.25,0,0,1-1.7-5.554,2.2,2.2,0,0,0,.053,1.068c.5,2.292,1.549,4.428,1.844,6.79a2.665,2.665,0,0,1-.545,2.234c-.794.943-1.512,2-2.983,1.916a1.729,1.729,0,0,0-.71.207.807.807,0,0,0-.516,1.106,1.685,1.685,0,0,1-.518,2,7.3,7.3,0,0,1-2.938,1.784,21.79,21.79,0,0,0-7.741,4.607c-.164.161-.286.23-.423-.019a1.642,1.642,0,0,0-2.1-.831c-.219.061-.517.045-.59.269-.1.311.276.286.43.417a1.568,1.568,0,0,1,.716,1.111c.007.42-.488.362-.743.542a.827.827,0,0,0-.41,1.005c.153.419.5.791.929.658a1.22,1.22,0,0,1,1.456.354.486.486,0,0,0,.28.125,6.582,6.582,0,0,1,2.37,1.029,43.9,43.9,0,0,0,5.567,2.451c.615.262,1.291.233,1.9.51a.78.78,0,0,1-.408.472,3.555,3.555,0,0,1-3.1.185,17.994,17.994,0,0,1-2.64-1.206,3.25,3.25,0,0,0-1.719-.567c.348.176.582.288.811.409,1.154.614,2.109,1.515,3.207,2.206,1.742,1.1,3.138,1.219,4.524.106a2.876,2.876,0,0,1,1.383-.644c1.293-.194,2.469-.768,3.726-1.07a2.638,2.638,0,0,0,1.078-.57,1.544,1.544,0,0,1,.724-.3,2.959,2.959,0,0,0,2.1-1.285.689.689,0,0,0-.151-1.021,8.956,8.956,0,0,0-3.165-1.771,3.994,3.994,0,0,0-1.925-.474c.41.2.7.343.993.491a8.17,8.17,0,0,1,2.682,1.951c.156.187.339.413.232.668-.122.291-.424.283-.7.29a8.089,8.089,0,0,1-2.262-.331,3.965,3.965,0,0,1-3.356-3.783,1.242,1.242,0,0,0-.109-.216c-.2.474-.462.461-.833.319a7.535,7.535,0,0,0-1.462-.362.942.942,0,0,0-1.036,1.269.783.783,0,0,1-.24.974,4.438,4.438,0,0,1-3.038,1.011,1.692,1.692,0,0,1-1.309-.409,12.593,12.593,0,0,0-2.7-1.943,1.112,1.112,0,0,1-.087-1.977,9.042,9.042,0,0,1,2.514-1.168c1.71-.6,3.43-1.172,5.145-1.756a6.847,6.847,0,0,1,2.954-.75,36.2,36.2,0,0,0,6.818.085c4.189-.388,10.095-4.933,10.095-4.933Z" transform="translate(-515.632 -321.583)"/><path class="a" d="M669.663,587.164a.243.243,0,0,1,.316.122,7.823,7.823,0,0,0,1.958,1.979,3.079,3.079,0,0,1-2.362-1.786C669.547,587.354,669.511,587.229,669.663,587.164Z" transform="translate(-623.417 -520.667)"/><path class="a" d="M525.1,555.63a.761.761,0,0,0,.607.421.806.806,0,0,1,.6,1.222,2.015,2.015,0,0,0,.41,2.577c.378.461.779.9,1.165,1.36.062.073.147.162.084.274s-.171.1-.273.088c-1.037-.165-3.462-1.712-3.547-2.948a5.154,5.154,0,0,1,.956-2.993Z" transform="translate(-494.467 -492.722)"/><path class="a" d="M383.782,562.2a5.688,5.688,0,0,1-.451,2.434c-.228.854-.534,1.688-.845,2.516a.491.491,0,0,0,.2.627,2.26,2.26,0,0,1,.756,1.938.776.776,0,0,1-.071.359c-.22.344-.423.805-.846.834s-.411-.5-.565-.782c-.254-.468-.414-.986-.628-1.477a.948.948,0,0,1,.111-1.046,14.863,14.863,0,0,0,1.906-4.192c.154-.4.288-.808.43-1.214Z" transform="translate(-367.742 -498.548)"/><path class="a" d="M770.82,292.068s5.938-3.83,29.114-1.916l-17.65,6.718a9.017,9.017,0,0,1-11.464-4.8h0Z" transform="translate(-713.221 -256.827)"/><path class="a" d="M811.71,435.747s8.256-3.9,21.708-.186l-9.185,1.484Z" transform="translate(-749.481 -384.827)"/></g><g transform="translate(0 84.44)"><path class="a" d="M15.432,773.145H0v-24.3H15.432V754H5.961v4.213h4.813l1.387,5.121h-6.2v4.693h9.472v5.121Z" transform="translate(0 -748.496)"/><path class="a" d="M403.98,748.839V764.7a8.546,8.546,0,0,1-1.336,4.8,8.421,8.421,0,0,1-3.682,3.117,12.907,12.907,0,0,1-5.412,1.079,12.517,12.517,0,0,1-5-.925,7.1,7.1,0,0,1-3.34-2.843,8.893,8.893,0,0,1-1.2-4.8V748.821l5.978.017v14.576a8.179,8.179,0,0,0,.325,2.449,3.206,3.206,0,0,0,1.165,1.678,3.514,3.514,0,0,0,2.227.634q2.655,0,3.494-1.559a9.94,9.94,0,0,0,.822-4.505V748.82l5.961.017Z" transform="translate(-340.531 -748.478)"/><path class="a" d="M572.29,748.99h5.96v24.288l-5.96-.017Z" transform="translate(-507.493 -748.629)"/><path class="a" d="M658.285,770.466l-15.466-12.418.017,12.349h-6V745.8l15.484,11.561V746.142l5.96.034v24.288Z" transform="translate(-564.735 -745.8)"/><path class="a" d="M853.572,773.145H838.14v-24.3h15.432V754H844.1v4.213h4.813l1.387,5.121h-6.2v4.693h9.472v5.121Z" transform="translate(-743.243 -748.496)"/><path class="a" d="M986.34,773.295l8.136-12.589-7.9-11.7,6.56.017,4.916,7.159,4.83-7.159,6.851-.034-8.29,11.63,8.238,12.692-6.611-.017-5.155-7.827-5.412,7.827h-6.166Z" transform="translate(-874.663 -748.629)"/><path class="a" d="M161.241,749.66a12.131,12.131,0,1,0,12.131,12.131A12.144,12.144,0,0,0,161.241,749.66Zm0,18.384a6.254,6.254,0,1,1,6.254-6.255A6.261,6.261,0,0,1,161.241,768.044Z" transform="translate(-132.227 -749.223)"/><rect class="a" width="13.517" height="3.452" transform="translate(22.333 26.38)"/><g transform="translate(43.522 26.395)"><path class="a" d="M394.01,982.125h-2.275a2.479,2.479,0,0,0-2.317-1.271,2.942,2.942,0,0,0-2.995,3.221,2.99,2.99,0,0,0,3.08,3.248,2.676,2.676,0,0,0,2.8-2.275h-3.39v-1.512h5.34v1.723a4.817,4.817,0,0,1-4.817,3.842,5.036,5.036,0,0,1-.015-10.071,4.531,4.531,0,0,1,4.591,3.093Z" transform="translate(-384.39 -979.018)"/><path class="a" d="M582.841,980.16c2.373,0,3.56,1.37,3.56,3.023a2.848,2.848,0,0,1-2.246,2.84l2.358,4h-2.288l-2.175-3.842h-.932v3.842H579.14v-9.859h3.7Zm-.07,1.638h-1.653v2.9h1.653c1.1,0,1.6-.58,1.6-1.468S583.873,981.8,582.771,981.8Z" transform="translate(-557.09 -980.02)"/><path class="a" d="M754.627,989.02a5.05,5.05,0,1,1,5.043-5.057A4.954,4.954,0,0,1,754.627,989.02Zm0-1.765a3.288,3.288,0,1,0-3.023-3.291A2.981,2.981,0,0,0,754.627,987.255Z" transform="translate(-708.223 -978.92)"/><path class="a" d="M946.19,980.16h1.978v6.1a2,2,0,1,0,4,0v-6.1h1.992v6.088a3.713,3.713,0,0,1-4.025,3.87,3.649,3.649,0,0,1-3.941-3.87V980.16Z" transform="translate(-882.581 -980.02)"/><path class="a" d="M1131.711,986.235h-1.653v3.785h-1.978v-9.86h3.63c2.373,0,3.56,1.342,3.56,3.051,0,1.5-1.017,3.023-3.56,3.023Zm-.085-1.6c1.116,0,1.61-.551,1.61-1.427s-.495-1.44-1.61-1.44h-1.568v2.868h1.568Z" transform="translate(-1043.877 -980.02)"/></g></g></g></g></svg>