<svg xmlns="http://www.w3.org/2000/svg" width="224.353" height="77.1" viewBox="0 0 224.353 77.1"><defs><style>.a{fill:#fff;}</style></defs><g transform="translate(0)"><g transform="translate(0 0)"><path class="a" d="M448.755,113.65H435.59l-9.243,13.113V113.65H414.94v40.121h11.407V143.446l2.69-3.759,6.863,14.083h12.746l-11.933-24.137Z" transform="translate(-347.776 -95.253)"/><path class="a" d="M634.14,185.115a17.141,17.141,0,0,1-7.951,1.693c-2.778,0-3.532-.586-3.812-2.292h16.251l.021-1.123c.134-7.229.24-12.939-3.032-16.272-2-2.033-5.165-3.021-9.69-3.021-9.957,0-14.4,4.992-14.4,16.187,0,9.962,2.363,16.136,14.133,16.136,5.18,0,9.227-.874,12.691-2.752l.458-.248-4.2-8.515Zm-8.426-11.294c2.428,0,2.839.631,2.967,3.237H622.29C622.513,174.534,623.321,173.821,625.715,173.821Z" transform="translate(-512.543 -137.537)"/><path class="a" d="M795.473,167.68l-3.59,14.174L788.2,167.68H776.67l9.389,30.572a3.052,3.052,0,0,1-.915.092h-4.387v9.036h4.384c6.247,0,9.551-1.075,11.422-7.177l10.015-32.522Z" transform="translate(-650.952 -140.537)"/><path class="a" d="M986.09,175.087V167.68H961.827v9.826h9.947L961.09,191.8v7.252h25.474v-9.193H975.286Z" transform="translate(-805.519 -140.537)"/><rect class="a" width="11.249" height="9.194" transform="translate(182.598 16.922)"/><rect class="a" width="11.143" height="31.374" transform="translate(182.651 27.143)"/><path class="a" d="M1231.559,164.1c-4.371,0-7.2.707-8.986,2.276l-.594-1.781-8.979.7v30.756h11.143V178.338c0-2.724.434-3.516,3.305-3.516,1.943,0,2.359.605,2.359,3.411v17.821H1241v-20.4C1241,170.693,1240.023,164.1,1231.559,164.1Z" transform="translate(-1016.651 -137.537)"/><path class="a" d="M43.322,42.707A14.983,14.983,0,0,0,29.16,52.886a14.959,14.959,0,1,0,0,9.562A14.957,14.957,0,1,0,43.322,42.707ZM14.981,69.675A12.009,12.009,0,1,1,26.991,57.666,12.009,12.009,0,0,1,14.981,69.675Zm28.341,0A12.009,12.009,0,1,1,55.332,57.666,12.009,12.009,0,0,1,43.322,69.675Z" transform="translate(-0.027 -35.794)"/><path class="a" d="M86.1,98.234a5.486,5.486,0,0,1,.147-1.261,2.813,2.813,0,0,0,3.849-4,5.448,5.448,0,1,1-4,5.258Z" transform="translate(-72.167 -77.761)"/><path class="a" d="M205.629,103.683a5.445,5.445,0,0,1-5.3-6.71,2.813,2.813,0,0,0,3.849-4,5.449,5.449,0,1,1,1.457,10.7Z" transform="translate(-167.781 -77.761)"/><path class="a" d="M120.751.138c-7.352.89-14.162,13.031-14.162,13.031a46.053,46.053,0,0,0-3.752-5.476C100.161,4.345,96.363.617,92.41.138c0,0,11.126-.971,14.067,2.328.036.04.071.081.1.121C109.357-.866,120.751.138,120.751.138Z" transform="translate(-77.456 -0.002)"/><path class="a" d="M157.534,180.257l-5.36,5.879-5.374-5.879a13.093,13.093,0,0,0,5.366-6.817A13.125,13.125,0,0,0,157.534,180.257Z" transform="translate(-123.041 -145.365)"/><path class="a" d="M61.723,253.214c-1.923-.486-3.27-6.54-3.27-6.54,0,3.462,1.923,8.079,1.923,8.079-.74.74-8.774,5.038-9.389,5.366l-.037.019s-8.657-4.617-9.426-5.39c0,0,1.923-4.617,1.923-8.079,0,0-1.345,6.059-3.27,6.54,0,0-17.217-9.619-13.657-34.819,0,0,10.624,6.831,18.616.291l5.827,6.734,5.653-6.538.162-.2c7.984,6.54,18.616-.291,18.616-.291C78.94,243.6,61.723,253.214,61.723,253.214Z" transform="translate(-21.826 -183.039)"/></g></g></svg>