<svg xmlns="http://www.w3.org/2000/svg" width="93.002" height="95.145" viewBox="0 0 93.002 95.145"><defs><style>.a,.b{fill:#fff;}.b{font-size:5px;font-family:BarlowCondensed-SemiBold, Barlow;font-weight:600;letter-spacing:0.03em;}.c{letter-spacing:-0.02em;}</style></defs><g transform="translate(0)"><g transform="translate(0 0)"><path class="a" d="M25.558,288.766q-2.372-2.149-7.04-5.632a32.957,32.957,0,0,1-5.114-4.3,5.01,5.01,0,0,1-1.26-3.334,4.311,4.311,0,0,1,.815-2.742,2.6,2.6,0,0,1,2.15-1.037,2.807,2.807,0,0,1,2.223,1.037,3.961,3.961,0,0,1,.89,2.668V277.5a.888.888,0,0,0,.89.89h10.3a.885.885,0,0,0,.888-.89v-1.778a15.008,15.008,0,0,0-1.89-7.6,12.984,12.984,0,0,0-5.336-5.112,16.846,16.846,0,0,0-7.967-1.816,16.814,16.814,0,0,0-7.892,1.778,12.838,12.838,0,0,0-5.336,5.039A14.658,14.658,0,0,0-.01,275.5a14.951,14.951,0,0,0,1.7,7.3,19.172,19.172,0,0,0,4.075,5.261,76.215,76.215,0,0,0,6.076,4.78,46.531,46.531,0,0,1,5.336,4.261,4.3,4.3,0,0,1,1.333,3.076,3.813,3.813,0,0,1-.852,2.557,2.742,2.742,0,0,1-2.186,1,2.7,2.7,0,0,1-2.186-1.037,4.3,4.3,0,0,1-.852-2.816v-1.7a.888.888,0,0,0-.89-.89H1.177a.857.857,0,0,0-.63.26.854.854,0,0,0-.259.63v2.3a13.623,13.623,0,0,0,1.89,7.151,12.841,12.841,0,0,0,5.3,4.891,17.2,17.2,0,0,0,7.929,1.741q6.816,0,11-3.928t4.186-10.6a13.527,13.527,0,0,0-1.333-6.187,16.567,16.567,0,0,0-3.705-4.78Z" transform="translate(0.01 -226.201)"/><path class="a" d="M261.529,294.9a.245.245,0,0,1,0-.26.554.554,0,0,1,.222-.185,13.317,13.317,0,0,0,4.262-5.3,17.608,17.608,0,0,0,1.518-7.447,21.017,21.017,0,0,0-.344-3.833c-.133.031-.26.066-.4.1A105.9,105.9,0,0,0,255.21,281.2c.012.212.019.43.019.655a6.349,6.349,0,0,1-1.186,4.075,3.868,3.868,0,0,1-3.187,1.482h-2.074a.327.327,0,0,1-.371-.37V276.524a.327.327,0,0,1,.371-.37h2.074a4.7,4.7,0,0,1,.99.1,37.365,37.365,0,0,0-1.02-8.855,17.449,17.449,0,0,1-.415-1.772H237a.883.883,0,0,0-.889.888v50.1a.885.885,0,0,0,.889.89h10.522a.885.885,0,0,0,.888-.89V297.2a.328.328,0,0,1,.371-.371h1.112a.35.35,0,0,1,.37.3l5.039,19.638a.975.975,0,0,0,1.037.741h10.82q.814,0,.815-.741l-.074-.3L261.526,294.9Z" transform="translate(-204.467 -230.037)"/><path class="a" d="M500.509,300.82q0,1.707-.149,4.816a12.289,12.289,0,0,1-4.224,9.04q-3.928,3.409-10.3,3.409a18.176,18.176,0,0,1-7.781-1.593,12.713,12.713,0,0,1-5.336-4.484,12.051,12.051,0,0,1-2-6.595q-.149-2.519-.149-3.928a.787.787,0,0,1,.89-.89h10.522a.787.787,0,0,1,.89.89q0,1.039.149,2.668a4.376,4.376,0,0,0,.89,2.446,2.391,2.391,0,0,0,1.927.89,2.543,2.543,0,0,0,1.963-.852,3.937,3.937,0,0,0,.926-2.334q.072-1.628.074-4.816c0-2.124-.05-3.754-.149-4.743a3.517,3.517,0,0,0-.852-2.261,2.55,2.55,0,0,0-1.963-.852,3.928,3.928,0,0,0-2.519,1.186.852.852,0,0,1-.592.3,1.436,1.436,0,0,1-.667-.3l-5.41-5.633a1.416,1.416,0,0,1-.3-.667.855.855,0,0,1,.3-.592l8.744-9.412c.2-.3.149-.445-.149-.445H474.974a17.316,17.316,0,0,0,5.643-4.966,16.406,16.406,0,0,0,2.6-5.217l.066-.265h16.266a.886.886,0,0,1,.89.888v8.967a1.42,1.42,0,0,1-.445,1.037l-8,9.263q-.3.444.149.445a7.652,7.652,0,0,1,5.633,3.112,11.943,11.943,0,0,1,2.519,6.966,45.231,45.231,0,0,1,.223,4.52Z" transform="translate(-407.507 -230.028)"/><path class="a" d="M379.859,25.429l2.144.189-.035.717A8.4,8.4,0,0,1,380.4,30.4c-1.226,1.738-3.672,3.905-8.435,4.712a2.065,2.065,0,0,0,.914.168,8.393,8.393,0,0,0,2.542-.516l1.289-.433-.327,1.32a15.36,15.36,0,0,1-2.434,4.869,16.569,16.569,0,0,1-10.183,6.47,108.625,108.625,0,0,0-12.275,3.455l-1.548.524L350,49.871c0-.079.362-7.982-1.025-12.756a14.9,14.9,0,0,1-.091-8.326c.775-2.66,2.483-6.217,6.221-8.053l.689-.338.95,2.072a19.649,19.649,0,0,1,.1-2.038c.505-4.831,2.871-8.248,6.839-9.882l.784-.323,1.005,3.725c1.047-2.791,3.128-7.144,6.244-8.352l.831-.322.712,3.614C375.211,5.941,379.674.03,384.069.03c.076,0,.153,0,.229.005l.509.024.163.482c.076.226,1.706,5.316-3.467,14.472l3.405-1.4,0,1.111c0,.307-.047,6.844-5.055,10.706Z" transform="translate(-301.649 -0.03)"/><text class="b" transform="translate(5.512 94.145)"><tspan x="0" y="0">PRODUC</tspan><tspan y="0">T</tspan><tspan y="0">OR SAN</tspan><tspan class="c" y="0">T</tspan><tspan y="0">A ROSA</tspan></text></g></g></svg>