<svg xmlns="http://www.w3.org/2000/svg" width="106.988" height="122.726" viewBox="0 0 106.988 122.726"><defs><style>.a{fill:#fff;}</style></defs><g transform="translate(0 0)"><g transform="translate(0)"><path class="a" d="M86.448,18.662c-.527,5.277-.973,10.221-1.329,14.944a36.412,36.412,0,0,0-16.585-2.8,32.6,32.6,0,0,0-15.422,5.138c-4.642-1.69-11.456-4.353-20.6-5.228C14.364,28.87.141,33.286.015,47.757-.364,59.344,7.762,64.694,22.6,68.191c9.333,2.24,13.169,2.7,13.169,5.705-.135,2.645-2.934,3.668-8.567,4.137-6.634.545-16.589-.455-26.125-2.817q-.02,8.984-.072,18.009c7.986,1.713,18.193,1.78,27.45.811,10.875-1.127,17.121-4.173,20.812-8.626a32.632,32.632,0,0,0,19.37,8.148A38.392,38.392,0,0,0,93.623,86c7.251-5.4,13.407-13.583,13.367-23.822h0V0C100.789,5.372,93.339,12.218,86.448,18.662ZM39.29,55.049l-.437-.131c-7.368-2.046-10.87-2.934-10.893-5.345-.1-2.821,4.651-2.835,9.067-2.578a37.619,37.619,0,0,1,5.138.662,30.432,30.432,0,0,0-2.875,7.4Zm28.4,21.371c-8.369-.514-14.367-6.954-14.385-14.43.027-7.477,5.989-13.827,14.331-14.309,8.247-.5,16.287,5.782,16.355,14.39-.032,8.6-8.026,14.872-16.3,14.349h0Z" transform="translate(-0.002)"/><g transform="translate(1.206 96.162)"><path class="a" d="M2.679,231.647c-.081-7.157,5.935-11.83,15.012-13.056a18.632,18.632,0,0,1,7.012.095c-.221,2.343-.464,4.755-.726,7.247a14.327,14.327,0,0,0-6.345-.415c-3.258.388-5.773,1.749-6.021,5.129-.261,3.4,1.158,4.417,3.921,4.232a7.527,7.527,0,0,0,2.046-.4c.054-.491.1-.973.153-1.456q-1.8.135-3.632.293c.167-1.767.32-3.506.473-5.214,3.583-.4,7.035-.757,10.4-1.059-.433,4.088-.91,8.4-1.442,12.979a14.479,14.479,0,0,1-8.738,2.632c-7.833-.158-12.06-3.916-12.109-11h0Z" transform="translate(-2.678 -216.088)"/><path class="a" d="M60.117,214.823c2.578-.23,5.088-.419,7.553-.563,1.974,7.265,3.993,15.607,6.345,25.688q-4.11,0-8.22.009-.554-2.758-1.086-5.345c-1.609.032-3.227.072-4.845.113q-.98,2.576-2,5.246-4.117.014-8.234.023c3.763-9.09,7.319-17.59,10.492-25.17h0Zm4.272,12.934c-.383-1.622-.757-3.2-1.14-4.719q-.946,2.38-1.938,4.863c1.028-.054,2.055-.1,3.074-.144Z" transform="translate(-28.47 -213.861)"/><path class="a" d="M105.413,213.45c2.195-.059,4.376-.081,6.557-.072q1.886,4.624,3.979,9.852c1.212-3.448,2.366-6.661,3.488-9.685,2.213.086,4.453.212,6.733.365.518,7.4,1.172,15.76,1.96,25.562q-3.948-.007-7.9-.009c-.162-3.52-.315-6.846-.455-10q-.777,2.413-1.586,4.984l-3.912-.027q-.953-2.589-1.848-5.043.041,4.766.077,10.086H104.62c.32-10.081.59-18.568.8-26.013h0Z" transform="translate(-58.678 -213.376)"/><path class="a" d="M156.225,214.83c5.16.388,10.568.946,16.436,1.676q.27,2.941.572,6.012c-3.083-.343-6.057-.64-8.964-.9.072.7.14,1.415.212,2.127,2.506.207,5.061.442,7.684.708.225,2.168.46,4.39.712,6.679q-3.894-.27-7.684-.478c.081.766.167,1.541.248,2.33,2.947.131,5.922.284,8.941.455.248,2.235.5,4.525.78,6.886q-8.423-.027-16.828-.05c-.852-9.73-1.559-18.049-2.114-25.445h0Z" transform="translate(-87.024 -214.175)"/><path class="a" d="M196.478,241.919q-.412-3.623-.789-7.053a18.188,18.188,0,0,0,7.3,2.447c1.357.086,2.15-.216,2.1-.892-.063-.852-1.708-1.23-4.16-2.371-4.394-2.055-5.953-3.979-6.354-7.9-.446-4.809,2.452-6.575,9.5-5.584a44.1,44.1,0,0,1,8.31,2.249q.034,2.981.072,5.98a21.75,21.75,0,0,0-6.5-2.181c-1.262-.171-2.812-.239-2.754.487.05.617,1.1.919,3.583,1.879,5.962,2.249,7.062,4.6,7.035,8.117-.068,3.948-3.236,6.553-9.378,6.638a16.208,16.208,0,0,1-7.959-1.816h0Z" transform="translate(-108.069 -217.18)"/></g></g></g></svg>