<svg xmlns="http://www.w3.org/2000/svg" width="213.051" height="54.449" viewBox="0 0 213.051 54.449"><defs><style>.a{fill:#fff;}</style></defs><g transform="translate(0)"><g transform="translate(0)"><path class="a" d="M45.185,0H9.264A9.264,9.264,0,0,0,0,9.264v35.92a9.264,9.264,0,0,0,9.264,9.264h35.92a9.264,9.264,0,0,0,9.264-9.264V9.264A9.264,9.264,0,0,0,45.185,0Zm4.574,32.71h0a15.213,15.213,0,0,1-24.69,11.9c-1.807,1.977-4.9,3.14-9.639,3.14a25.492,25.492,0,0,1-10.422-1.9V38.238a24.325,24.325,0,0,0,9.38,2.266c2.4,0,3.762-.409,3.762-1.723,0-1.5-2.039-1.857-5.8-3.126C6.595,33.661,4.69,31.487,4.69,26.638c0-5.982,4.213-8.972,12.461-8.972a31.3,31.3,0,0,1,9.873,1.816,15.206,15.206,0,0,1,14.94-.054V13.264l7.793-6.747v26.19Z"/><path class="a" d="M64.37,111.7c0,1.178,1.36,1.5,4.94,2.447.073.02.143.041.216.064a15.116,15.116,0,0,1,1.535-3.848,16.451,16.451,0,0,0-2.52-.2c-2.129,0-4.168.182-4.168,1.541Z" transform="translate(-49.757 -85.152)"/><ellipse class="a" cx="7.423" cy="7.423" rx="7.423" ry="7.423" transform="translate(27.117 25.287)"/><path class="a" d="M295.79,39.127c0,8.967-5.537,14.134-15.137,14.134h-5.117v9.6H263.3V25.89h17.353C290.251,25.89,295.79,30.689,295.79,39.127Zm-11.6.37c0-2.742-1.53-4.325-4.166-4.325h-4.484v8.808h4.484c2.638,0,4.166-1.634,4.166-4.483Z" transform="translate(-203.528 -20.013)"/><path class="a" d="M401.07,57.64H387.2l-1.9,5.221H372.75L388.359,25.89h12.552l15.03,36.971H402.915Zm-3.006-8.756-3.8-10.813-3.9,10.813Z" transform="translate(-288.131 -20.013)"/><path class="a" d="M584.127,44.557,569.761,25.89H559.53V62.861h11.128V43.981l13.469,17.469Z" transform="translate(-432.51 -20.013)"/><path class="a" d="M705.156,26.18v9.283H686.116V40h17.3v9.283h-17.3v4.588H705.63v9.283H673.88V26.18Z" transform="translate(-520.901 -20.237)"/><path class="a" d="M829,26.18V52.972h15.4V63.151H816.76V26.18H829Z" transform="translate(-631.345 -20.237)"/></g></g></svg>