<svg xmlns="http://www.w3.org/2000/svg" width="95.813" height="107.564" viewBox="0 0 95.813 107.564"><defs><style>.a{fill:#fff;}</style></defs><g transform="translate(1059)"><g transform="translate(-1059)"><path class="a" d="M1.58,247.64h8.594c3.984,0,5.9,2.723,5.9,6.04a5.72,5.72,0,0,1-5.992,5.992H6.894v3.914H1.58Zm7.256,7.9a1.672,1.672,0,0,0,1.806-1.843c0-1.187-.545-1.905-1.706-1.905H6.894v3.762Z" transform="translate(-0.998 -156.382)"/><path class="a" d="M42.63,247.64h8.612c3.987,0,5.87,2.451,5.87,5.819a5.476,5.476,0,0,1-2.874,4.791,2.654,2.654,0,0,1,.792,1.106l1.843,4.26H51.345l-1.633-3.685a.918.918,0,0,0-.991-.667h-.767v4.359H42.63Zm7.278,7.477c1.164,0,1.784-.571,1.784-1.658a1.489,1.489,0,0,0-1.658-1.684H47.955v3.342Z" transform="translate(-26.92 -156.382)"/><path class="a" d="M84,247.64h5.307v15.945H84Z" transform="translate(-53.045 -156.382)"/><path class="a" d="M101.18,247.64l3.619,7.352,3.564-7.352h5.1v15.945h-5.321V256.8l-1.983,4.054h-2.771L101.4,256.8Z" transform="translate(-63.894 -156.382)"/><path class="a" d="M137.76,247.64h12.4v3.936h-7.079v2.031h6.165v4.035h-6.165v2h7.079v3.939h-12.4Z" transform="translate(-86.994 -156.382)"/><path class="a" d="M203.877,246.67H178.959a3,3,0,0,0-2.989,2.989v10.687a3,3,0,0,0,2.989,2.989h24.919a3,3,0,0,0,2.989-2.989V249.659A3,3,0,0,0,203.877,246.67Zm-6.025,14.077h-4.017l-3.317-8.693h-3.037v8.693h-3.858v-8.693h-3.07v-2.8h12.872l2.41,7,2.428-7h4.017Z" transform="translate(-111.123 -155.769)"/><path class="a" d="M79.256,14.342v13.1a32.337,32.337,0,0,0-31.766.114C42.5,25.951,35.241,23.7,26.485,23.7,8.962,23.7,0,30.059,0,42.777,0,53.1,4.054,57.713,16.285,61.939c8,2.7,12.33,3.471,12.33,6.633,0,2.793-2.889,3.659-8,3.659-6.069.029-13.985-1.994-19.944-4.794V83.622c5.4,2.6,13.587,4.054,22.162,4.054C32.912,87.676,39.49,85.2,43.33,81A32.348,32.348,0,0,0,95.813,55.689h0V0Zm-47.2,33.564-.457-.133c-7.613-2.023-10.5-2.7-10.5-5.2,0-2.889,4.337-3.276,8.863-3.276a35.079,35.079,0,0,1,5.358.431,32.226,32.226,0,0,0-3.261,8.181ZM63.472,71.491A15.787,15.787,0,1,1,79.256,55.705,15.788,15.788,0,0,1,63.472,71.491Z"/></g></g></svg>