<svg xmlns="http://www.w3.org/2000/svg" width="277.198" height="55.626" viewBox="0 0 277.198 55.626"><defs><style>.a{fill:#fff;}</style></defs><g transform="translate(0)"><g transform="translate(49.056 29.511)"><path class="a" d="M218.181,126.641a5.405,5.405,0,0,1,2.255.624,2.623,2.623,0,0,1,.767.6,2.963,2.963,0,0,1,.5.839l.047.143a4.983,4.983,0,0,1,.168.829c.032.279.057.572.072.876a9,9,0,0,1-.239,2.015,7.607,7.607,0,0,1-2.422,4.63,7.2,7.2,0,0,1-4.869,1.463H201.866a3.093,3.093,0,0,1-1.152-.192,2.625,2.625,0,0,1-.816-.5,2.537,2.537,0,0,1-.54-.708,3.545,3.545,0,0,1-.3-.8,6.207,6.207,0,0,1-.143-2.23l.121-.553a.5.5,0,0,1,.553-.479h13.794a5.046,5.046,0,0,0,.516-.025,2,2,0,0,0,.469-.1.743.743,0,0,0,.553-.528.581.581,0,0,0-.012-.348.324.324,0,0,0-.227-.227,1.029,1.029,0,0,0-.335-.1l-.385-.047-9.5-.025a4.765,4.765,0,0,1-2.255-.6,4.471,4.471,0,0,1-.8-.587,2.7,2.7,0,0,1-.565-.755,4.532,4.532,0,0,1-.289-.767,5.3,5.3,0,0,1-.168-.96,10.022,10.022,0,0,1,.192-2.087,12.6,12.6,0,0,1,.888-2.723,6.612,6.612,0,0,1,1.344-1.931,5.839,5.839,0,0,1,4.319-1.559h13.266a4.559,4.559,0,0,1,1.584.5,3.827,3.827,0,0,1,1.09.935,2.537,2.537,0,0,1,.491,1.655l-.311,1.894a.585.585,0,0,1-.192.335.692.692,0,0,1-.36.143H208.775a2.237,2.237,0,0,0-.839.143.645.645,0,0,0-.469.935q.107.263.733.289l9.98-.025Z" transform="translate(-198.875 -119.783)"/><path class="a" d="M317.412,138.121a.6.6,0,0,1-.2.323.521.521,0,0,1-.348.133H310.7a.369.369,0,0,1-.3-.133.35.35,0,0,1-.059-.323l2.686-12.666h-7.077a.369.369,0,0,1-.3-.133.35.35,0,0,1-.059-.323l1.031-4.822a.59.59,0,0,1,.2-.323.521.521,0,0,1,.348-.133h20.967a.369.369,0,0,1,.3.133.35.35,0,0,1,.059.323L327.464,125a.6.6,0,0,1-.2.323.521.521,0,0,1-.348.133H320.1Z" transform="translate(-279.252 -119.7)"/><path class="a" d="M410.4,132.811a.337.337,0,0,1,.289.131.37.37,0,0,1,.047.323l-1.006,4.847a.6.6,0,0,1-.2.323.521.521,0,0,1-.348.133h-19.6a.369.369,0,0,1-.3-.133.35.35,0,0,1-.059-.323l3.813-17.945a.59.59,0,0,1,.2-.323.521.521,0,0,1,.348-.133h19.6a.369.369,0,0,1,.3.133.35.35,0,0,1,.059.323l-1.08,4.99a.6.6,0,0,1-.2.323.521.521,0,0,1-.348.133H398.953l-1.512,7.2H410.4Zm-10.7-5.639a.636.636,0,0,1,.217-.335.54.54,0,0,1,.36-.143H408.7a.323.323,0,0,1,.289.143.4.4,0,0,1,.047.335l-.888,4.27a.536.536,0,0,1-.552.456H399.17a.375.375,0,0,1-.3-.131.35.35,0,0,1-.059-.323l.888-4.27Z" transform="translate(-342.253 -119.693)"/><path class="a" d="M499.466,132.675c.289,0,.407.153.36.456l-1.056,4.99a.6.6,0,0,1-.2.323.521.521,0,0,1-.348.133h-17.7a.369.369,0,0,1-.3-.133.35.35,0,0,1-.059-.323l3.813-17.945a.59.59,0,0,1,.2-.323.521.521,0,0,1,.348-.133h6.189a.369.369,0,0,1,.3.133.35.35,0,0,1,.059.323l-2.664,12.5h11.058Z" transform="translate(-410.761 -119.7)"/><path class="a" d="M568.618,138.336a1.033,1.033,0,0,1-.217.155.528.528,0,0,1-.264.084h-7.005a.335.335,0,0,1-.348-.217.519.519,0,0,1,.084-.479l13.626-17.92a.879.879,0,0,1,.239-.168.579.579,0,0,1,.239-.072h7.388a.364.364,0,0,1,.217.072.3.3,0,0,1,.121.168l5.925,17.92a.444.444,0,0,1-.1.479.594.594,0,0,1-.456.217h-6.909a.316.316,0,0,1-.217-.084.873.873,0,0,1-.143-.155l-.888-2.686h-7.462a.336.336,0,0,1-.348-.217.447.447,0,0,1,.109-.456l3.382-4.534a.5.5,0,0,1,.407-.217h2.158l-.479-1.608h.025c-.064-.192-.121-.348-.168-.469s-.094-.232-.133-.335-.084-.227-.133-.372-.114-.335-.192-.575l-8.468,11.468Z" transform="translate(-471.491 -119.7)"/><path class="a" d="M704.453,137.726a.363.363,0,0,1,.025.481.515.515,0,0,1-.5.289h-7.39l-7.94-8.853-1.776,8.4a.729.729,0,0,1-.217.335.566.566,0,0,1-.335.121h-6.189a.413.413,0,0,1-.311-.121.55.55,0,0,1-.071-.143.282.282,0,0,1,.025-.192l3.813-17.967a.589.589,0,0,1,.192-.311.552.552,0,0,1,.36-.121h14.586a18.009,18.009,0,0,1,1.848.084c.543.057,1.048.123,1.512.2a3.789,3.789,0,0,1,2.04,1.006,3.1,3.1,0,0,1,.863,1.872,10.744,10.744,0,0,1-.239,3.046,17.568,17.568,0,0,1-.767,2.59,9.565,9.565,0,0,1-.516,1.019,5.626,5.626,0,0,1-.612.851,4.941,4.941,0,0,1-1.534,1.223,4.147,4.147,0,0,1-.935.395,9.469,9.469,0,0,1-1.1.252l5.183,5.543Zm-7.844-10.316a1.579,1.579,0,0,0,.839-.217,1.21,1.21,0,0,0,.5-.671.613.613,0,0,0-.217-.624,1.066,1.066,0,0,0-.7-.217H689.48l-.36,1.727H696.6Z" transform="translate(-561.123 -119.64)"/><path class="a" d="M805.534,132.675c.289,0,.407.153.36.456l-1.056,4.99a.6.6,0,0,1-.2.323.521.521,0,0,1-.348.133h-17.7a.361.361,0,0,1-.3-.133.35.35,0,0,1-.059-.323l3.813-17.945a.59.59,0,0,1,.2-.323.521.521,0,0,1,.348-.133h6.189a.361.361,0,0,1,.3.133.35.35,0,0,1,.059.323l-2.664,12.5h11.058Z" transform="translate(-641.333 -119.7)"/><path class="a" d="M876.1,119.72a.369.369,0,0,1,.3.133.35.35,0,0,1,.059.323l-3.814,17.945a.6.6,0,0,1-.2.323.521.521,0,0,1-.348.133h-6.167a.361.361,0,0,1-.3-.133.35.35,0,0,1-.059-.323l3.813-17.945a.589.589,0,0,1,.2-.323.521.521,0,0,1,.348-.133Z" transform="translate(-701.109 -119.7)"/><path class="a" d="M909.187,127.382l-2.279,10.676a.605.605,0,0,1-.2.323.521.521,0,0,1-.348.133h-5.9a.369.369,0,0,1-.3-.133.35.35,0,0,1-.059-.323l3.813-17.871a.591.591,0,0,1,.2-.323.521.521,0,0,1,.348-.133h9.356a.388.388,0,0,1,.155.059.708.708,0,0,1,.155.109l6.549,10.915,2.279-10.626a.59.59,0,0,1,.2-.323.521.521,0,0,1,.348-.133h5.878a.369.369,0,0,1,.3.133.35.35,0,0,1,.059.323l-3.813,17.871a.6.6,0,0,1-.2.323.521.521,0,0,1-.348.133H916.1a.329.329,0,0,1-.168-.059.712.712,0,0,1-.143-.109l-6.6-10.964Z" transform="translate(-727.115 -119.708)"/><path class="a" d="M1021.245,119.7a.369.369,0,0,1,.3.133.35.35,0,0,1,.059.323l-1.438,6.692q2.327-1.776,4.739-3.587t4.714-3.562h8.564a.336.336,0,0,1,.385.289.5.5,0,0,1-.264.5l-11.611,8.3,6.31,6.093,2.95,2.854a.4.4,0,0,1,.037.5.517.517,0,0,1-.491.311h-9.285l-6.885-7.726L1017.8,138.1a.605.605,0,0,1-.2.323.521.521,0,0,1-.348.133h-6.189a.369.369,0,0,1-.3-.133.35.35,0,0,1-.059-.323l3.814-17.945a.59.59,0,0,1,.2-.323.521.521,0,0,1,.348-.133h6.189Z" transform="translate(-810.433 -119.685)"/></g><path class="a" d="M11.1,45.88l3.453-16.527L0,18.253l17.267-.74L21.707,0,31.82,17.513,166.255,26.64,53.774,23.433l46.374,3.7-62.128,1L48.84,48.594,26.764,37.617Z"/><g transform="translate(138.384 50.673)"><path class="a" d="M566.8,205.44h1.349q-2.549,4.5-2.57,4.536l-.155.274a.252.252,0,0,1-.111.064,2.317,2.317,0,0,1-.631.072h-.091a3.467,3.467,0,0,1-.673-.064.842.842,0,0,1-.17-.057.137.137,0,0,1-.049-.062l-2.684-4.736h1.347a.43.43,0,0,1,.227.072.57.57,0,0,1,.2.244q1.732,2.927,1.788,3.039h0l1.87-3.184a.528.528,0,0,1,.081-.091.421.421,0,0,1,.274-.106Z" transform="translate(-561.01 -205.438)"/><path class="a" d="M598.236,205.44a.468.468,0,0,1,.377.175.448.448,0,0,1,.1.2.527.527,0,0,1,.01.121v.728h-4.5v.713h3.15v1.073h-3.145v.76h4.492a0,0,0,0,1,0,0v.713a.464.464,0,0,1-.121.306.532.532,0,0,1-.106.089.487.487,0,0,1-.264.067h-4.84a.451.451,0,0,1-.136-.03.479.479,0,0,1-.269-.242.563.563,0,0,1-.042-.212v-2.5c0-.121,0-.513,0-1.179V205.9a.481.481,0,0,1,.074-.244.5.5,0,0,1,.185-.168.38.38,0,0,1,.118-.039.291.291,0,0,1,.064-.01h4.857Z" transform="translate(-585.064 -205.438)"/><path class="a" d="M621.266,205.44h.819a.129.129,0,0,1,0,.035s0,.007,0,.01V208.9l.007.007h-.007a.054.054,0,0,1,.007.012v.187h4.544v.784a.479.479,0,0,1-.3.466.471.471,0,0,1-.16.03h-4.9a.467.467,0,0,1-.395-.21.437.437,0,0,1-.071-.2v-.035L620.8,205.9a.464.464,0,0,1,.138-.321.458.458,0,0,1,.326-.138Z" transform="translate(-606.052 -205.438)"/><path class="a" d="M649.129,205.44h2.546a2.048,2.048,0,0,1,1.2.387,1.548,1.548,0,0,1,.232.185l.047.039c.116.133.2.234.252.306a2.116,2.116,0,0,1,.372,1.214v.686a2.127,2.127,0,0,1-.508,1.4,1.868,1.868,0,0,1-.264.249,1.965,1.965,0,0,1-.365.244,2.077,2.077,0,0,1-.972.242h-2.531a2.1,2.1,0,0,1-1.263-.422,3.363,3.363,0,0,1-.269-.244,1.638,1.638,0,0,1-.237-.306,2.07,2.07,0,0,1-.338-1.142v-.713a2.079,2.079,0,0,1,.466-1.32c.044-.052.118-.133.22-.242a1.76,1.76,0,0,1,.261-.195,2.06,2.06,0,0,1,1.154-.358Zm-.819,2.148v.646a.8.8,0,0,0,.111.437.6.6,0,0,0,.128.18.829.829,0,0,0,.612.257h2.489a.812.812,0,0,0,.673-.338.845.845,0,0,0,.116-.195.955.955,0,0,0,.057-.355v-.6a.937.937,0,0,0-.049-.345.862.862,0,0,0-.37-.434.8.8,0,0,0-.422-.116h-2.5a.828.828,0,0,0-.681.348.865.865,0,0,0-.1.187.846.846,0,0,0-.057.331Z" transform="translate(-625.812 -205.438)"/><path class="a" d="M680.244,205.432h3.8a.476.476,0,0,1,.414.227.493.493,0,0,1,.067.244v.809h-4.265a.82.82,0,0,0-.673.333.8.8,0,0,0-.168.493v.728a.814.814,0,0,0,.232.575.873.873,0,0,0,.178.138.471.471,0,0,0,.143.064.782.782,0,0,0,.227.054h4.317v.821a.467.467,0,0,1-.175.355.477.477,0,0,1-.3.1h-3.809a2.062,2.062,0,0,1-1.221-.4,2.458,2.458,0,0,1-.269-.232,1.894,1.894,0,0,1-.244-.306,2.265,2.265,0,0,1-.16-.284,2.084,2.084,0,0,1-.2-.923v-.654a2.083,2.083,0,0,1,.242-1,2.6,2.6,0,0,1,.175-.291c.02-.022.04-.044.062-.072s.076-.089.121-.138a1.952,1.952,0,0,1,.306-.257,2.243,2.243,0,0,1,.395-.227,2.185,2.185,0,0,1,.807-.16Z" transform="translate(-649.248 -205.43)"/><path class="a" d="M708.79,205.44h1.041a.472.472,0,0,1,.427.242.506.506,0,0,1,.062.257v4.447h-1.068a.468.468,0,0,1-.326-.146.477.477,0,0,1-.131-.34v-4.46Z" transform="translate(-672.337 -205.438)"/><path class="a" d="M720.919,205.44h3.823a2.1,2.1,0,0,1,1.258.414,2.946,2.946,0,0,1,.242.2,2.543,2.543,0,0,1,.237.284,2.51,2.51,0,0,1,.212.38c.017.044.035.1.052.153.012.037.025.076.039.116a2.24,2.24,0,0,1,.074.6v.654a2.083,2.083,0,0,1-.373,1.221,2.155,2.155,0,0,1-.224.276,2.726,2.726,0,0,1-.261.224,2.536,2.536,0,0,1-.249.16,2.108,2.108,0,0,1-1.016.257h-3.794a.451.451,0,0,1-.313-.131.522.522,0,0,1-.111-.16.307.307,0,0,1-.022-.064h-.022v-4.107a.477.477,0,0,1,.444-.481Zm.834,1.283v2.385h3a.778.778,0,0,0,.543-.22.645.645,0,0,0,.123-.138.783.783,0,0,0,.153-.451v-.77a.8.8,0,0,0-.18-.493.959.959,0,0,0-.168-.16,1.024,1.024,0,0,0-.175-.1.942.942,0,0,0-.333-.057Z" transform="translate(-681.136 -205.438)"/><path class="a" d="M750.642,205.44h1.041a.66.66,0,0,1,.53.261,2.626,2.626,0,0,1,.143.242c.01.015.017.03.025.042.022.032.2.353.548.96.1.173.207.37.333.59.779,1.376,1.179,2.077,1.2,2.109l.414.742h-1.093a.674.674,0,0,1-.639-.409c-.1-.165-.168-.289-.212-.37a1.058,1.058,0,0,0-.064-.111h-3.394a.027.027,0,0,0-.017.007.056.056,0,0,0-.012.03l-.321.56a.677.677,0,0,1-.575.291h-1.09v0q.784-1.387,1.367-2.407c.308-.543.555-.979.745-1.315.293-.518.446-.789.461-.809a1.228,1.228,0,0,1,.121-.187.655.655,0,0,1,.491-.22Zm.523,1.053-1.11,1.956h2.222q-1.092-1.909-1.11-1.956Z" transform="translate(-701.468 -205.438)"/><path class="a" d="M780.934,205.44h3.823a2.089,2.089,0,0,1,1.255.414,2.955,2.955,0,0,1,.242.2,2.557,2.557,0,0,1,.237.284,2.515,2.515,0,0,1,.212.38c.017.044.034.1.054.153.012.037.025.076.039.116a2.24,2.24,0,0,1,.074.6v.654a2.083,2.083,0,0,1-.372,1.221,2.156,2.156,0,0,1-.224.276,2.449,2.449,0,0,1-.264.224,2.534,2.534,0,0,1-.249.16,2.108,2.108,0,0,1-1.016.257h-3.8a.452.452,0,0,1-.313-.131.521.521,0,0,1-.111-.16.311.311,0,0,1-.022-.064h-.022v-4.107a.477.477,0,0,1,.444-.481Zm.834,1.283v2.385h3a.778.778,0,0,0,.543-.22.635.635,0,0,0,.123-.138.783.783,0,0,0,.153-.451v-.77a.78.78,0,0,0-.18-.493.953.953,0,0,0-.168-.16,1.028,1.028,0,0,0-.175-.1.943.943,0,0,0-.333-.057Z" transform="translate(-726.344 -205.438)"/><path class="a" d="M824.359,205.44a.468.468,0,0,1,.377.175.446.446,0,0,1,.1.2.523.523,0,0,1,.01.121v.728h-4.5v.713h3.15v1.073h-3.145v.76h4.492a0,0,0,0,1,0,0v.713a.464.464,0,0,1-.121.306.53.53,0,0,1-.106.089.487.487,0,0,1-.264.067h-4.84a.451.451,0,0,1-.136-.03.48.48,0,0,1-.269-.242.517.517,0,0,1-.042-.212v-2.5c0-.121,0-.513,0-1.179V205.9a.481.481,0,0,1,.074-.244.5.5,0,0,1,.185-.168.381.381,0,0,1,.118-.039.293.293,0,0,1,.064-.01h4.857Z" transform="translate(-755.407 -205.438)"/><path class="a" d="M855.64,205.44h1.041a.472.472,0,0,1,.427.242.507.507,0,0,1,.062.257v4.447H856.1a.472.472,0,0,1-.456-.486v-4.46Z" transform="translate(-782.964 -205.438)"/><path class="a" d="M867.826,205.44h.8a5.37,5.37,0,0,1,.639.516q.6.514,1.352,1.174t1.332,1.174l.582.516v-3.377h.8a.46.46,0,0,1,.395.2.469.469,0,0,1,.086.274v3.994a.485.485,0,0,1-.2.4.515.515,0,0,1-.311.084h-.75a5.043,5.043,0,0,1-.646-.516q-.6-.514-1.357-1.174t-1.334-1.174l-.582-.511v3.372h-.777a.52.52,0,0,1-.284-.072.481.481,0,0,1-.187-.242.431.431,0,0,1-.03-.16v-3.991a.458.458,0,0,1,.195-.387.444.444,0,0,1,.284-.1Z" transform="translate(-791.786 -205.438)"/><path class="a" d="M899.516,205.44h.8a5.367,5.367,0,0,1,.639.516q.6.514,1.352,1.174t1.332,1.174l.582.516v-3.377h.8a.46.46,0,0,1,.395.2.468.468,0,0,1,.086.274v3.994a.485.485,0,0,1-.2.4.515.515,0,0,1-.311.084h-.75a5.038,5.038,0,0,1-.646-.516q-.6-.514-1.357-1.174t-1.335-1.174l-.582-.511v3.372h-.777a.52.52,0,0,1-.284-.072.494.494,0,0,1-.187-.242.431.431,0,0,1-.03-.16v-3.991a.458.458,0,0,1,.195-.387.444.444,0,0,1,.284-.1Z" transform="translate(-815.659 -205.438)"/><path class="a" d="M931.454,205.44H934a2.061,2.061,0,0,1,1.2.387,1.551,1.551,0,0,1,.232.185l.047.039c.116.133.2.234.252.306a2.116,2.116,0,0,1,.372,1.214v.686a2.127,2.127,0,0,1-.508,1.4,2.036,2.036,0,0,1-.261.249,1.963,1.963,0,0,1-.365.244,2.077,2.077,0,0,1-.972.242h-2.531a2.1,2.1,0,0,1-1.263-.422,3.381,3.381,0,0,1-.269-.244,1.645,1.645,0,0,1-.237-.306,2.07,2.07,0,0,1-.338-1.142v-.713a2.091,2.091,0,0,1,.464-1.32c.044-.052.118-.133.219-.242a1.648,1.648,0,0,1,.264-.195,2.059,2.059,0,0,1,1.154-.358Zm-.821,2.148v.646a.8.8,0,0,0,.111.437.6.6,0,0,0,.128.18.829.829,0,0,0,.612.257h2.489a.812.812,0,0,0,.673-.338.762.762,0,0,0,.175-.55v-.6a.94.94,0,0,0-.049-.345.862.862,0,0,0-.37-.434.8.8,0,0,0-.422-.116h-2.5a.828.828,0,0,0-.681.348.869.869,0,0,0-.1.187.847.847,0,0,0-.057.331Z" transform="translate(-838.5 -205.438)"/><path class="a" d="M963.707,205.44h1.349q-2.549,4.5-2.57,4.536l-.156.274a.251.251,0,0,1-.111.064,2.317,2.317,0,0,1-.632.072H961.5a3.467,3.467,0,0,1-.673-.064.843.843,0,0,1-.17-.057.137.137,0,0,1-.049-.062l-2.684-4.736h1.344a.429.429,0,0,1,.227.072.589.589,0,0,1,.2.244q1.732,2.927,1.788,3.039h0l1.87-3.184a.531.531,0,0,1,.081-.091A.422.422,0,0,1,963.707,205.44Z" transform="translate(-860.015 -205.438)"/><path class="a" d="M986.57,205.44h1.041a.652.652,0,0,1,.528.261,2.154,2.154,0,0,1,.143.242c.01.015.017.03.025.042q.033.048.548.96c.1.173.207.37.333.59.78,1.376,1.179,2.077,1.2,2.109l.414.742H989.71a.672.672,0,0,1-.639-.409c-.1-.165-.168-.289-.212-.37a1.058,1.058,0,0,0-.064-.111H985.4a.019.019,0,0,0-.015.007.056.056,0,0,0-.012.03l-.318.56a.681.681,0,0,1-.575.291h-1.09v0q.784-1.387,1.366-2.407c.308-.543.555-.979.745-1.315.294-.518.447-.789.461-.809a1.233,1.233,0,0,1,.121-.187.655.655,0,0,1,.491-.22Zm.523,1.053-1.11,1.956H988.2Q987.113,206.54,987.092,206.493Z" transform="translate(-879.202 -205.438)"/><path class="a" d="M1016.824,205.432h3.8a.476.476,0,0,1,.415.227.493.493,0,0,1,.066.244v.809h-4.265a.82.82,0,0,0-.673.333.8.8,0,0,0-.168.493v.728a.813.813,0,0,0,.232.575.875.875,0,0,0,.177.138.447.447,0,0,0,.143.064.782.782,0,0,0,.227.054h4.317v.821a.47.47,0,0,1-.474.459h-3.809a2.062,2.062,0,0,1-1.221-.4,2.452,2.452,0,0,1-.269-.232,1.889,1.889,0,0,1-.244-.306,2.234,2.234,0,0,1-.16-.284,2.084,2.084,0,0,1-.2-.923v-.654a2.084,2.084,0,0,1,.242-1,2.585,2.585,0,0,1,.175-.291.911.911,0,0,0,.059-.072c.035-.042.077-.089.121-.138a1.955,1.955,0,0,1,.306-.257,2.248,2.248,0,0,1,.395-.227,2.185,2.185,0,0,1,.807-.16Z" transform="translate(-902.804 -205.43)"/><path class="a" d="M1045.37,205.44h1.041a.472.472,0,0,1,.427.242.5.5,0,0,1,.062.257v4.447h-1.068a.472.472,0,0,1-.456-.486v-4.46Z" transform="translate(-925.893 -205.438)"/><path class="a" d="M1057.8,205.44h2.546a2.061,2.061,0,0,1,1.2.387,1.548,1.548,0,0,1,.232.185l.047.039c.116.133.2.234.252.306a2.115,2.115,0,0,1,.372,1.214v.686a2.126,2.126,0,0,1-.508,1.4,2.024,2.024,0,0,1-.261.249,1.963,1.963,0,0,1-.365.244,2.078,2.078,0,0,1-.972.242h-2.531a2.1,2.1,0,0,1-1.263-.422,3.373,3.373,0,0,1-.269-.244,1.631,1.631,0,0,1-.237-.306,2.068,2.068,0,0,1-.338-1.142v-.713a2.091,2.091,0,0,1,.464-1.32c.044-.052.118-.133.219-.242a1.643,1.643,0,0,1,.264-.195,2.059,2.059,0,0,1,1.154-.358Zm-.821,2.148v.646a.8.8,0,0,0,.111.437.605.605,0,0,0,.128.18.829.829,0,0,0,.612.257h2.489a.812.812,0,0,0,.673-.338.972.972,0,0,0,.118-.195.953.953,0,0,0,.057-.355v-.6a.936.936,0,0,0-.049-.345.862.862,0,0,0-.37-.434.8.8,0,0,0-.422-.116h-2.5a.828.828,0,0,0-.681.348.868.868,0,0,0-.1.187.846.846,0,0,0-.057.331Z" transform="translate(-933.683 -205.438)"/><path class="a" d="M1087.616,205.44h.8a5.352,5.352,0,0,1,.639.516q.6.514,1.352,1.174t1.332,1.174l.582.516v-3.377h.8a.459.459,0,0,1,.395.2.467.467,0,0,1,.087.274v3.994a.486.486,0,0,1-.2.4.516.516,0,0,1-.311.084h-.75a5.049,5.049,0,0,1-.646-.516q-.6-.514-1.357-1.174T1089,207.527l-.582-.511v3.372h-.777a.519.519,0,0,1-.283-.072.5.5,0,0,1-.188-.242.432.432,0,0,1-.03-.16v-3.991a.458.458,0,0,1,.195-.387.443.443,0,0,1,.284-.1Z" transform="translate(-957.36 -205.438)"/></g></g></svg>