<?xml version="1.0" encoding="UTF-8"?>
<svg id="Capa_2" data-name="Capa 2" xmlns="http://www.w3.org/2000/svg" viewBox="0 0 428.6 491.61">
  <defs>
    <style>
      .cls-1 {
        fill: #fff;
        stroke-width: 0px;
      }
    </style>
  </defs>
  <g id="Capa_1-2" data-name="Capa 1">
    <g>
      <path class="cls-1" d="m346.31,74.76c-2.12,21.14-3.9,40.95-5.33,59.86-21.02-8.66-43.42-12.87-66.44-11.22-23.32,1.66-44.29,9.28-61.78,20.58-18.6-6.77-45.89-17.44-82.54-20.95C57.53,115.66.56,133.35.05,191.31c-1.52,46.42,31.04,67.84,90.49,81.85,37.39,8.98,52.75,10.82,52.75,22.85-.54,10.6-11.75,14.69-34.32,16.57-26.58,2.19-66.46-1.82-104.65-11.28-.06,24-.16,48.04-.29,72.14,32,6.86,72.89,7.14,109.97,3.25,43.56-4.52,68.59-16.71,83.37-34.56,20.13,17.81,46.85,30.49,77.6,32.64,36.14,1.92,70.3-8.59,100.09-30.28,29.04-21.62,53.71-54.42,53.54-95.43,0,0,0,0,0,0V0c-24.85,21.52-54.69,48.95-82.29,74.76Zm-188.91,145.76c-.59-.18-1.15-.35-1.75-.53-29.52-8.2-43.55-11.76-43.64-21.42-.41-11.31,18.63-11.36,36.32-10.33,6.45.37,13.33,1.23,20.58,2.65-5.07,9.28-8.98,19.19-11.51,29.63Zm113.76,85.61c-33.53-2.05-57.56-27.85-57.63-57.8.1-29.96,24-55.39,57.41-57.33,33.04-1.98,65.24,23.16,65.51,57.64-.12,34.46-32.16,59.58-65.3,57.49Z"/>
      <g>
        <path class="cls-1" d="m4.84,447.56c-.32-28.67,23.78-47.39,60.13-52.3,11.77-1.56,20.23-1.54,28.09.38-.89,9.39-1.86,19.05-2.9,29.03-7.85-2.68-16.28-2.72-25.42-1.66-13.06,1.56-23.13,7-24.12,20.54-1.04,13.61,4.64,17.7,15.71,16.95,3.11-.22,5.43-.66,8.19-1.6.21-1.96.41-3.9.61-5.84-4.81.37-9.66.76-14.55,1.17.66-7.07,1.29-14.04,1.89-20.89,14.35-1.61,28.19-3.03,41.66-4.25-1.73,16.38-3.65,33.64-5.77,52-7.87,5.8-19.57,10.59-35.01,10.54-31.38-.64-48.31-15.69-48.52-44.05Z"/>
        <path class="cls-1" d="m131.61,389.08c10.33-.92,20.38-1.67,30.25-2.26,7.91,29.11,15.99,62.52,25.42,102.9-10.98,0-21.95.02-32.93.04-1.48-7.37-2.93-14.5-4.36-21.41-6.45.13-12.92.28-19.41.45-2.62,6.87-5.29,13.88-8.01,21.02-10.99.03-21.98.06-32.99.09,15.07-36.42,29.32-70.46,42.03-100.83Zm17.11,51.82c-1.53-6.5-3.04-12.8-4.56-18.91-2.53,6.35-5.12,12.84-7.76,19.48,4.12-.21,8.23-.4,12.32-.57Z"/>
        <path class="cls-1" d="m192.05,385.52c8.8-.23,17.53-.33,26.27-.29,5.04,12.35,10.33,25.47,15.95,39.47,4.85-13.82,9.47-26.69,13.97-38.8,8.87.35,17.84.84,26.98,1.46,2.07,29.67,4.69,63.14,7.85,102.41-10.55-.02-21.09-.03-31.63-.04-.65-14.1-1.26-27.43-1.83-40.08-2.08,6.45-4.19,13.1-6.36,19.96-5.23-.04-10.45-.08-15.67-.1-2.54-6.92-5.01-13.65-7.41-20.2.1,12.73.2,26.17.31,40.4-10.54,0-21.08,0-31.62,0,1.29-40.39,2.36-74.39,3.2-104.21Z"/>
        <path class="cls-1" d="m282.05,387.86c20.68,1.55,42.34,3.79,65.84,6.71.72,7.85,1.48,15.88,2.3,24.09-12.34-1.37-24.27-2.57-35.91-3.6.28,2.81.56,5.66.85,8.53,10.04.83,20.28,1.77,30.78,2.83.9,8.68,1.85,17.59,2.86,26.76-10.4-.72-20.65-1.36-30.78-1.92.32,3.07.66,6.18.99,9.33,11.8.52,23.72,1.13,35.82,1.82.99,8.95,2.03,18.13,3.13,27.58-22.5-.08-44.97-.15-67.42-.19-3.41-38.98-6.24-72.31-8.47-101.94Z"/>
        <path class="cls-1" d="m359,484.34c-1.11-9.68-2.16-19.09-3.16-28.26,8.92,5.3,20.83,9.29,29.25,9.81,5.43.34,8.62-.87,8.41-3.57-.26-3.42-6.85-4.92-16.67-9.5-17.61-8.24-23.85-15.95-25.45-31.65-1.79-19.26,9.83-26.34,38.05-22.36,9.6,1.36,24.63,5.58,33.29,9,.09,7.97.18,15.96.28,23.96-11.33-5.52-19.84-7.91-26.06-8.73-5.05-.68-11.26-.95-11.04,1.95.2,2.48,4.38,3.69,14.36,7.52,23.89,9.01,28.29,18.41,28.18,32.51-.27,15.82-12.96,26.25-37.57,26.6-11.91.02-23.84-2.47-31.88-7.27Z"/>
      </g>
    </g>
  </g>
</svg>